<?xml version="1.0" encoding="utf-8"?>
<!-- Generator: Adobe Illustrator 25.2.0, SVG Export Plug-In . SVG Version: 6.00 Build 0)  -->
<svg version="1.1" id="kity_svg_6" xmlns="http://www.w3.org/2000/svg" xmlns:xlink="http://www.w3.org/1999/xlink" x="0px" y="0px"
	 viewBox="0 0 1399 1024" style="enable-background:new 0 0 1399 1024;" xml:space="preserve">
<style type="text/css">
	.st0{fill:none;stroke:#73BF76;}
	.st1{fill:#73BF76;stroke:#73BF76;stroke-width:3;}
	.st2{enable-background:new    ;}
	.st3{fill:#FFFFFF;}
	.st4{font-family:'ArialMT';}
	.st5{font-size:16px;}
	.st6{font-family:'AdobeSongStd-Light-GBpc-EUC-H';}
	.st7{fill:none;}
	.st8{fill:#FFFFFF;stroke:#808080;}
	.st9{fill:none;stroke:#808080;}
	.st10{display:none;}
	.st11{display:inline;fill:#FFFFFF;stroke:#808080;}
	.st12{font-size:12px;}
	.st13{fill:#666666;}
	.st14{font-size:14px;}
	.st15{fill:#EEF6EE;stroke:#73BF76;}
</style>
<g id="kity_g_8">
	<g id="minder1" text-rendering="optimize-speed">
		<g id="minder_connect_group1">
			<path id="kity_path_31" class="st0" d="M560,539.5c0-199.7-42.1-361.5-94-361.5"/>
			<path id="kity_path_33" class="st0" d="M436.5,181.7c-3,0-85.5-22.2-88.5-22.2H133"/>
			<path id="kity_path_35" class="st0" d="M470,179.9c-3,0-119,15.6-122,15.6H213"/>
			<path id="kity_path_37" class="st0" d="M466,178c25.6,25.8-102.4,64.8-118,53.5H213"/>
			<path id="kity_path_39" class="st0" d="M560,539.5c0-36.5,67.6-66,151-66"/>
			<path id="kity_path_41" class="st0" d="M801,484.5c56.1-12.2,54.3-353.1,77-352h97"/>
			<path id="kity_path_43" class="st0" d="M975,132.5c3,0,3-77,6-77h109"/>
			<path id="kity_path_45" class="st0" d="M975,132.5c3,0,3-41,6-41h116"/>
			<path id="kity_path_47" class="st0" d="M975,132.5c3,0,3-5,6-5h191"/>
			<path id="kity_path_49" class="st0" d="M1172,127.5c6.5,0,6.5,30,13,30h203"/>
			<path id="kity_path_51" class="st0" d="M801,484.5c15.9,6.8,45.2-185.1,68-186h108"/>
			<path id="kity_path_53" class="st0" d="M977,298.5c3,0,3-105,6-105h116"/>
			<path id="kity_path_55" class="st0" d="M977,298.5c3,0,3-69,6-69h116"/>
			<path id="kity_path_57" class="st0" d="M977,298.5c3,0,3-33,6-33h303"/>
			<path id="kity_path_59" class="st0" d="M977,298.5c3,0,3,3,6,3h301"/>
			<path id="kity_path_61" class="st0" d="M713,473.5c113.1,32.9,172.1-13.7,165-31h100"/>
			<path id="kity_path_63" class="st0" d="M978,442.5c20,0,20-55,40-55h248"/>
			<path id="kity_path_65" class="st0" d="M978,442.5c18,0,18-11,36-11h171"/>
			<path id="kity_path_67" class="st0" d="M713,473.5c93,71.7,83,360.4,165,357H635"/>
			<path id="kity_path_69" class="st0" d="M713,473.5c10.5,0,10.5,274,21,274h-87"/>
			<path id="kity_path_71" class="st0" d="M794.7,484.5c83.5-9.2,101.8,40.4,105.3,73h44"/>
			<path id="kity_path_73" class="st0" d="M944,557.5c3,0,3-67,6-67h116"/>
			<path id="kity_path_75" class="st0" d="M944,557.5c3,0,3-31,6-31h116"/>
			<path id="kity_path_77" class="st0" d="M944,557.5c3,0,3,5,6,5h146"/>
			<path id="kity_path_79" class="st0" d="M944,557.5c3,0,3,41,6,41h301"/>
			<path id="kity_path_81" class="st0" d="M944,557.5c3,0,3,77,6,77h109"/>
			<path id="kity_path_83" class="st0" d="M785,484.5c110.6,22.6,91.7,498.9,154,499h90"/>
			<path id="kity_path_85" class="st0" d="M713,473.5c64.2,31.3,165.9,388,214,381h120"/>
			<path id="kity_path_87" class="st0" d="M1047,854.5c3,0,3-101,6-101h123"/>
			<path id="kity_path_89" class="st0" d="M1047,854.5c3,0,3-65,6-65h128"/>
			<path id="kity_path_91" class="st0" d="M1047,854.5c3,0,3-29,6-29h303"/>
			<path id="kity_path_93" class="st0" d="M1047,854.5c3,0,3,7,6,7h145"/>
			<path id="kity_path_95" class="st0" d="M560,539.5c0,223.4,16.6,404.5,37,404.5l0,0"/>
			<path id="kity_path_97" class="st0" d="M709,944c3,0,3-18.5,6-18.5h83"/>
			<path id="kity_path_99" class="st0" d="M709,944c3,0,3,17.5,6,17.5h135"/>
			<path id="kity_path_101" class="st0" d="M709,944c3,0,3,53.5,6,53.5h128"/>
			<path id="kity_path_103" class="st0" d="M560,539.5c1.4,225-87.7,395.7-231,409.5"/>
			<path id="kity_path_105" class="st0" d="M560,539.5c0-77-59.5-139.5-133-139.5l0,0"/>
			<path id="kity_path_107" class="st0" d="M315,400c-3,0-3-36.5-6-36.5H155"/>
			<path id="kity_path_109" class="st0" d="M315,400c-3,0-3-0.5-6-0.5h-99"/>
			<path id="kity_path_111" class="st0" d="M315,400c-3,0-3,35.5-6,35.5h-61"/>
			<path id="kity_path_113" class="st0" d="M315,400c-3,0-3,71.5-6,71.5h-61"/>
			<path id="kity_path_115" class="st0" d="M560,539.5c0,29.8-88.6,54-198,54l0,0"/>
			<path id="kity_path_117" class="st0" d="M262,593.5c-3,0-3-55-6-55h-75"/>
			<path id="kity_path_119" class="st0" d="M262,593.5c-3,0-3-19-6-19H104"/>
			<path id="kity_path_121" class="st0" d="M262,593.5c-3,0-3,17-6,17H29"/>
			<path id="kity_path_123" class="st0" d="M262,593.5c-3,0-3,53-6,53h-78"/>
			<path id="kity_path_125" class="st0" d="M262,593.5c-3,0-3,89-6,89h-97"/>
			<path id="kity_path_127" class="st0" d="M560,539.5c0,114.3-80.6,207-180,207l0,0"/>
			<path id="kity_path_129" class="st0" d="M258.8,772.5c-3,0-38.8-27-41.8-27H101"/>
			<path id="kity_path_131" class="st0" d="M380.5,746.5c5.9,0.2-152.2,35.2-163.5,35H101"/>
		</g>
		<g id="minder_node1">
			<path id="node_outline1" class="st1" d="M430,525.5h260c2.8,0,5,2.2,5,5v18c0,2.8-2.2,5-5,5H430c-2.8,0-5-2.2-5-5v-18
				C425,527.7,427.2,525.5,430,525.5z"/>
			<g id="node_text1">
				<text id="kity_text_22" text-rendering="inherit" transform="matrix(1 0 0 1 437 541.9)" class="st2"><tspan x="0" y="0" class="st3 st4 st5">adjesus.top </tspan><tspan x="86.3" y="0" class="st3 st6 st5">网站导览</tspan><tspan x="150.3" y="0" class="st3 st4 st5"> bcjesus.top</tspan></text>
			</g>
		</g>
		<g id="kity_g_12">
			<path id="kity_path_13" class="st7" d="M437,539.5L437,539.5L437,539.5L437,539.5z"/>
		</g>
		<g id="kity_g_14">
			<path id="kity_path_15" class="st7" d="M437,539.5L437,539.5L437,539.5L437,539.5z"/>
			<path id="kity_path_16" class="st7" d="M8.5,0"/>
		</g>
		<g id="minder_node2">
			<g id="node_expander4">
				<path id="kity_path_433_2_" class="st8" d="M470,179.9"/>
				<path id="kity_path_433_4_" class="st8" d="M341,178"/>
				<path id="kity_path_433_3_" class="st8" d="M466,178"/>
				<path id="kity_path_434_1_" class="st9" d="M342.5,178"/>
			</g>
		</g>
		<g id="minder_node3">
			<g id="node_expander1" class="st10">
				<path id="kity_path_424" class="st11" d="M350,142.5c0,3.3-2.7,6-6,6s-6-2.7-6-6s2.7-6,6-6S350,139.2,350,142.5"/>
				<path id="kity_path_425" class="st8" d="M8.5,0"/>
			</g>
			<path id="node_outline2" class="st7" d="M138,128.5h195c2.8,0,5,2.2,5,5v18c0,2.8-2.2,5-5,5H138c-2.8,0-5-2.2-5-5v-18
				C133,130.7,135.2,128.5,138,128.5z"/>
			<g id="node_text2">
				<text id="kity_text_133" text-rendering="inherit" transform="matrix(1 0 0 1 138 144.3)" class="st2"><tspan x="0" y="0" class="st4 st12">/2/</tspan><tspan x="13.3" y="0" class="st6 st12">已上传的和不上传的</tspan><tspan x="121.3" y="0" class="st4 st12">/</tspan><tspan x="124.7" y="0" class="st6 st12">改革宗</tspan></text>
			</g>
			
				<a id="kity_a_234" xlink:href="http://47.101.61.63:5244/2/%E5%B7%B2%E4%B8%8A%E4%BC%A0%E7%9A%84%E5%92%8C%E4%B8%8D%E4%B8%8A%E4%BC%A0%E7%9A%84/%E6%94%B9%E9%9D%A9%E5%AE%97" >
				<path id="kity_path_236" d="M313,131.5h16c2.2,0,4,1.8,4,4v14c0,2.2-1.8,4-4,4h-16c-2.2,0-4-1.8-4-4v-14
					C309,133.3,310.8,131.5,313,131.5z"/>
				<path id="kity_path_235" class="st13" d="M327.6,147.7h-1.3c-1.7,0-3.1-1.1-3.6-2.6h4.9c0.7,0,1.3-0.6,1.3-1.3v-2.6
					c0-0.7-0.6-1.3-1.3-1.3h-4.9c0.5-1.5,1.9-2.6,3.6-2.6h1.3c2.1,0,3.8,1.7,3.8,3.8v2.6C331.4,146,329.7,147.7,327.6,147.7z
					 M316.1,142.6c0-0.7,0.6-1.3,1.3-1.3h7.7c0.7,0,1.3,0.6,1.3,1.3s-0.6,1.3-1.3,1.3h-7.7C316.7,143.9,316.1,143.3,316.1,142.6z
					 M313.6,141.3v2.6c0,0.7,0.6,1.3,1.3,1.3h4.9c-0.5,1.5-1.9,2.6-3.6,2.6h-1.3c-2.1,0-3.8-1.7-3.8-3.8v-2.6c0-2.1,1.7-3.8,3.8-3.8
					h1.3c1.7,0,3.1,1.1,3.6,2.6h-4.9C314.1,140.1,313.6,140.6,313.6,141.3z"/>
			</a>
		</g>
		<g id="minder_node4">
			<g id="node_expander2" class="st10">
				<path id="kity_path_427" class="st11" d="M350,178.5c0,3.3-2.7,6-6,6s-6-2.7-6-6s2.7-6,6-6S350,175.2,350,178.5"/>
				<path id="kity_path_428" class="st8" d="M8.5,0"/>
			</g>
			<path id="node_outline3" class="st7" d="M218,164.5h115c2.8,0,5,2.2,5,5v18c0,2.8-2.2,5-5,5H218c-2.8,0-5-2.2-5-5v-18
				C213,166.7,215.2,164.5,218,164.5L218,164.5z"/>
			<g id="node_text3">
				<text id="kity_text_135" text-rendering="inherit" transform="matrix(1 0 0 1 218 180.3)" class="st2"><tspan x="0" y="0" class="st4 st12">/r/</tspan><tspan x="10.7" y="0" class="st6 st12">改革宗电子书</tspan></text>
			</g>
			<a id="kity_a_237" xlink:href="http://47.101.61.63:5244/r/%E6%94%B9%E9%9D%A9%E5%AE%97%E7%94%B5%E5%AD%90%E4%B9%A6" >
				<path id="kity_path_239" d="M313,167.5h16c2.2,0,4,1.8,4,4v14c0,2.2-1.8,4-4,4h-16c-2.2,0-4-1.8-4-4v-14
					C309,169.3,310.8,167.5,313,167.5z"/>
				<path id="kity_path_238" class="st13" d="M327.6,183.7h-1.3c-1.7,0-3.1-1.1-3.6-2.6h4.9c0.7,0,1.3-0.6,1.3-1.3v-2.6
					c0-0.7-0.6-1.3-1.3-1.3h-4.9c0.5-1.5,1.9-2.6,3.6-2.6h1.3c2.1,0,3.8,1.7,3.8,3.8v2.6C331.4,182,329.7,183.7,327.6,183.7z
					 M316.1,178.6c0-0.7,0.6-1.3,1.3-1.3h7.7c0.7,0,1.3,0.6,1.3,1.3s-0.6,1.3-1.3,1.3h-7.7C316.7,179.9,316.1,179.3,316.1,178.6z
					 M313.6,177.3v2.6c0,0.7,0.6,1.3,1.3,1.3h4.9c-0.5,1.5-1.9,2.6-3.6,2.6h-1.3c-2.1,0-3.8-1.7-3.8-3.8v-2.6c0-2.1,1.7-3.8,3.8-3.8
					h1.3c1.7,0,3.1,1.1,3.6,2.6h-4.9C314.1,176.1,313.6,176.6,313.6,177.3z"/>
			</a>
		</g>
		<g id="minder_node5">
			<g id="node_expander3" class="st10">
				<path id="kity_path_430" class="st11" d="M350,214.5c0,3.3-2.7,6-6,6s-6-2.7-6-6s2.7-6,6-6S350,211.2,350,214.5"/>
				<path id="kity_path_431" class="st8" d="M8.5,0"/>
			</g>
			<path id="node_outline4" class="st7" d="M218,200.5h115c2.8,0,5,2.2,5,5v18c0,2.8-2.2,5-5,5H218c-2.8,0-5-2.2-5-5v-18
				C213,202.7,215.2,200.5,218,200.5L218,200.5z"/>
			<g id="node_text4">
				<text id="kity_text_137" text-rendering="inherit" transform="matrix(1 0 0 1 218 216.3)" class="st2"><tspan x="0" y="0" class="st4 st12">/t/</tspan><tspan x="10" y="0" class="st6 st12">改革宗电子书</tspan></text>
			</g>
			<a id="kity_a_240" xlink:href="http://47.101.61.63:5244/t/%E6%94%B9%E9%9D%A9%E5%AE%97%E7%94%B5%E5%AD%90%E4%B9%A6" >
				<path id="kity_path_242" d="M313,203.5h16c2.2,0,4,1.8,4,4v14c0,2.2-1.8,4-4,4h-16c-2.2,0-4-1.8-4-4v-14
					C309,205.3,310.8,203.5,313,203.5z"/>
				<path id="kity_path_241" class="st13" d="M327.6,219.7h-1.3c-1.7,0-3.1-1.1-3.6-2.6h4.9c0.7,0,1.3-0.6,1.3-1.3v-2.6
					c0-0.7-0.6-1.3-1.3-1.3h-4.9c0.5-1.5,1.9-2.6,3.6-2.6h1.3c2.1,0,3.8,1.7,3.8,3.8v2.6C331.4,218,329.7,219.7,327.6,219.7z
					 M316.1,214.6c0-0.7,0.6-1.3,1.3-1.3h7.7c0.7,0,1.3,0.6,1.3,1.3s-0.6,1.3-1.3,1.3h-7.7C316.7,215.9,316.1,215.3,316.1,214.6z
					 M313.6,213.3v2.6c0,0.7,0.6,1.3,1.3,1.3h4.9c-0.5,1.5-1.9,2.6-3.6,2.6h-1.3c-2.1,0-3.8-1.7-3.8-3.8v-2.6c0-2.1,1.7-3.8,3.8-3.8
					h1.3c1.7,0,3.1,1.1,3.6,2.6h-4.9C314.1,212.1,313.6,212.6,313.6,213.3z"/>
			</a>
		</g>
		<g id="minder_node6">
			<g id="node_expander32">
				<path id="kity_path_517" class="st8" d="M712,473.5c0,3.3-2.7,6-6,6s-6-2.7-6-6s2.7-6,6-6S712,470.2,712,473.5"/>
				<path id="kity_path_518" class="st9" d="M701.5,473.5h9"/>
			</g>
			<g id="node_text33">
				<text id="kity_text_195" text-rendering="inherit" transform="matrix(1 0 0 1 771 456.4438)" class="st2 st6 st14">分类的</text>
			</g>
			<a id="kity_a_315" xlink:href="http://47.101.61.63:5244/r/%E6%95%B4%E7%90%86" >
				<path id="kity_path_317" d="M785,462.5h16c2.2,0,4,1.8,4,4v14c0,2.2-1.8,4-4,4h-16c-2.2,0-4-1.8-4-4v-14
					C781,464.3,782.8,462.5,785,462.5z"/>
				<path id="kity_path_316" class="st13" d="M799.6,478.7h-1.3c-1.7,0-3.1-1.1-3.6-2.6h4.9c0.7,0,1.3-0.6,1.3-1.3v-2.6
					c0-0.7-0.6-1.3-1.3-1.3h-4.9c0.5-1.5,1.9-2.6,3.6-2.6h1.3c2.1,0,3.8,1.7,3.8,3.8v2.6C803.4,477,801.7,478.7,799.6,478.7z
					 M788.1,473.6c0-0.7,0.6-1.3,1.3-1.3h7.7c0.7,0,1.3,0.6,1.3,1.3s-0.6,1.3-1.3,1.3h-7.7C788.7,474.9,788.1,474.3,788.1,473.6z
					 M785.6,472.3v2.6c0,0.7,0.6,1.3,1.3,1.3h4.9c-0.5,1.5-1.9,2.6-3.6,2.6h-1.3c-2.1,0-3.8-1.7-3.8-3.8v-2.6c0-2.1,1.7-3.8,3.8-3.8
					h1.3c1.7,0,3.1,1.1,3.6,2.6h-4.9C786.1,471.1,785.6,471.6,785.6,472.3z"/>
			</a>
		</g>
		<g id="minder_node7">
			<g id="node_text10">
				<text id="kity_text_149" text-rendering="inherit" transform="matrix(1 0 0 1 893 117.3)" class="st2 st6 st12">圣经注释</text>
			</g>
			<a id="kity_a_255" xlink:href="http://47.101.61.63:5244/r/%E6%95%B4%E7%90%86/%E6%B3%A8%E9%87%8A" >
				<path id="kity_path_257" d="M950,104.5h16c2.2,0,4,1.8,4,4v14c0,2.2-1.8,4-4,4h-16c-2.2,0-4-1.8-4-4v-14
					C946,106.3,947.8,104.5,950,104.5z"/>
				<path id="kity_path_256" class="st13" d="M964.6,120.7h-1.3c-1.7,0-3.1-1.1-3.6-2.6h4.9c0.7,0,1.3-0.6,1.3-1.3v-2.6
					c0-0.7-0.6-1.3-1.3-1.3h-4.9c0.5-1.5,1.9-2.6,3.6-2.6h1.3c2.1,0,3.8,1.7,3.8,3.8v2.6C968.4,119,966.7,120.7,964.6,120.7z
					 M953.1,115.6c0-0.7,0.6-1.3,1.3-1.3h7.7c0.7,0,1.3,0.6,1.3,1.3s-0.6,1.3-1.3,1.3h-7.7C953.7,116.9,953.1,116.3,953.1,115.6z
					 M950.6,114.3v2.6c0,0.7,0.6,1.3,1.3,1.3h4.9c-0.5,1.5-1.9,2.6-3.6,2.6h-1.3c-2.1,0-3.8-1.7-3.8-3.8v-2.6c0-2.1,1.7-3.8,3.8-3.8
					h1.3c1.7,0,3.1,1.1,3.6,2.6h-4.9C951.1,113.1,950.6,113.6,950.6,114.3z"/>
			</a>
		</g>
		<g id="minder_node8">
			<g id="node_expander5" class="st10">
				<path id="kity_path_436" class="st11" d="M991,38.5c0,3.3-2.7,6-6,6s-6-2.7-6-6s2.7-6,6-6S991,35.2,991,38.5"/>
				<path id="kity_path_437" class="st8" d="M8.5,0"/>
			</g>
			<path id="node_outline6" class="st7" d="M996,24.5h89c2.8,0,5,2.2,5,5v18c0,2.8-2.2,5-5,5h-89c-2.8,0-5-2.2-5-5v-18
				C991,26.7,993.2,24.5,996,24.5z"/>
			<g id="node_text6">
				<text id="kity_text_141" text-rendering="inherit" transform="matrix(1 0 0 1 996 40.3)" class="st2 st6 st12">改革宗注释</text>
			</g>
			
				<a id="kity_a_243" xlink:href="http://47.101.61.63:5244/2/%E5%B7%B2%E4%B8%8A%E4%BC%A0%E7%9A%84%E5%92%8C%E4%B8%8D%E4%B8%8A%E4%BC%A0%E7%9A%84/%E6%94%B9%E9%9D%A9%E5%AE%97/%E6%B3%A8%E9%87%8A" >
				<path id="kity_path_245" d="M1065,27.5h16c2.2,0,4,1.8,4,4v14c0,2.2-1.8,4-4,4h-16c-2.2,0-4-1.8-4-4v-14
					C1061,29.3,1062.8,27.5,1065,27.5z"/>
				<path id="kity_path_244" class="st13" d="M1079.6,43.7h-1.3c-1.7,0-3.1-1.1-3.6-2.6h4.9c0.7,0,1.3-0.6,1.3-1.3v-2.6
					c0-0.7-0.6-1.3-1.3-1.3h-4.9c0.5-1.5,1.9-2.6,3.6-2.6h1.3c2.1,0,3.8,1.7,3.8,3.8v2.6C1083.4,42,1081.7,43.7,1079.6,43.7z
					 M1068.1,38.6c0-0.7,0.6-1.3,1.3-1.3h7.7c0.7,0,1.3,0.6,1.3,1.3s-0.6,1.3-1.3,1.3h-7.7C1068.7,39.9,1068.1,39.3,1068.1,38.6z
					 M1065.6,37.3v2.6c0,0.7,0.6,1.3,1.3,1.3h4.9c-0.5,1.5-1.9,2.6-3.6,2.6h-1.3c-2.1,0-3.8-1.7-3.8-3.8v-2.6c0-2.1,1.7-3.8,3.8-3.8
					h1.3c1.7,0,3.1,1.1,3.6,2.6h-4.9C1066.1,36.1,1065.6,36.6,1065.6,37.3z"/>
			</a>
		</g>
		<g id="minder_node9">
			<g id="node_expander6" class="st10">
				<path id="kity_path_439" class="st11" d="M991,74.5c0,3.3-2.7,6-6,6s-6-2.7-6-6s2.7-6,6-6S991,71.2,991,74.5"/>
				<path id="kity_path_440" class="st8" d="M8.5,0"/>
			</g>
			<path id="node_outline7" class="st7" d="M996,60.5h96c2.8,0,5,2.2,5,5c0,0,0,0,0,0v18c0,2.8-2.2,5-5,5h-96c-2.8,0-5-2.2-5-5v-18
				C991,62.7,993.2,60.5,996,60.5z"/>
			<g id="node_text7">
				<text id="kity_text_143" text-rendering="inherit" transform="matrix(1 0 0 1 996 76.3)" class="st2"><tspan x="0" y="0" class="st4 st12">/t/</tspan><tspan x="10" y="0" class="st6 st12">整理</tspan><tspan x="34" y="0" class="st4 st12">/</tspan><tspan x="37.3" y="0" class="st6 st12">注释</tspan></text>
			</g>
			<a id="kity_a_246" xlink:href="http://47.101.61.63:5244/t/%E6%95%B4%E7%90%86/%E6%B3%A8%E9%87%8A" >
				<path id="kity_path_248" d="M1072,63.5h16c2.2,0,4,1.8,4,4l0,0v14c0,2.2-1.8,4-4,4h-16c-2.2,0-4-1.8-4-4v-14
					C1068,65.3,1069.8,63.5,1072,63.5z"/>
				<path id="kity_path_247" class="st13" d="M1086.6,79.7h-1.3c-1.7,0-3.1-1.1-3.6-2.6h4.9c0.7,0,1.3-0.6,1.3-1.3v-2.6
					c0-0.7-0.6-1.3-1.3-1.3h-4.9c0.5-1.5,1.9-2.6,3.6-2.6h1.3c2.1,0,3.8,1.7,3.8,3.8v2.6C1090.4,78,1088.7,79.7,1086.6,79.7z
					 M1075.1,74.6c0-0.7,0.6-1.3,1.3-1.3h7.7c0.7,0,1.3,0.6,1.3,1.3s-0.6,1.3-1.3,1.3h-7.7C1075.7,75.9,1075.1,75.3,1075.1,74.6z
					 M1072.6,73.3v2.6c0,0.7,0.6,1.3,1.3,1.3h4.9c-0.5,1.5-1.9,2.6-3.6,2.6h-1.3c-2.1,0-3.8-1.7-3.8-3.8v-2.6c0-2.1,1.7-3.8,3.8-3.8
					h1.3c1.7,0,3.1,1.1,3.6,2.6h-4.9C1073.1,72.1,1072.6,72.6,1072.6,73.3z"/>
			</a>
		</g>
		<g id="minder_node10">
			<g id="node_expander8">
				<path id="kity_path_445_2_" class="st8" d="M991,110.5"/>
				<path id="kity_path_445_3_" class="st8" d="M979,110.5"/>
				<path id="kity_path_445_1_" class="st8" d="M991,110.5"/>
				<path id="kity_path_446_1_" class="st9" d="M980.5,110.5"/>
			</g>
			<path id="node_outline9" class="st7" d="M996,96.5h171c2.8,0,5,2.2,5,5v18c0,2.8-2.2,5-5,5H996c-2.8,0-5-2.2-5-5v-18
				C991,98.7,993.2,96.5,996,96.5z"/>
			<g id="node_text9">
				<text id="kity_text_147" text-rendering="inherit" transform="matrix(1 0 0 1 996 112.3)" class="st2"><tspan x="0" y="0" class="st4 st12">/2/</tspan><tspan x="13.3" y="0" class="st6 st12">三次归类</tspan><tspan x="61.3" y="0" class="st4 st12">/</tspan><tspan x="64.7" y="0" class="st6 st12">分类</tspan><tspan x="88.7" y="0" class="st4 st12">1/</tspan><tspan x="98.7" y="0" class="st6 st12">注释类</tspan></text>
			</g>
			
				<a id="kity_a_252" xlink:href="http://47.101.61.63:5244/2/%E4%B8%89%E6%AC%A1%E5%BD%92%E7%B1%BB/%E5%88%86%E7%B1%BB1/%E6%B3%A8%E9%87%8A%E7%B1%BB" >
				<path id="kity_path_254" d="M1147,99.5h16c2.2,0,4,1.8,4,4v14c0,2.2-1.8,4-4,4h-16c-2.2,0-4-1.8-4-4v-14
					C1143,101.3,1144.8,99.5,1147,99.5z"/>
				<path id="kity_path_253" class="st13" d="M1161.6,115.7h-1.3c-1.7,0-3.1-1.1-3.6-2.6h4.9c0.7,0,1.3-0.6,1.3-1.3v-2.6
					c0-0.7-0.6-1.3-1.3-1.3h-4.9c0.5-1.5,1.9-2.6,3.6-2.6h1.3c2.1,0,3.8,1.7,3.8,3.8v2.6C1165.4,114,1163.7,115.7,1161.6,115.7z
					 M1150.1,110.6c0-0.7,0.6-1.3,1.3-1.3h7.7c0.7,0,1.3,0.6,1.3,1.3s-0.6,1.3-1.3,1.3h-7.7C1150.7,111.9,1150.1,111.3,1150.1,110.6
					z M1147.6,109.3v2.6c0,0.7,0.6,1.3,1.3,1.3h4.9c-0.5,1.5-1.9,2.6-3.6,2.6h-1.3c-2.1,0-3.8-1.7-3.8-3.8v-2.6
					c0-2.1,1.7-3.8,3.8-3.8h1.3c1.7,0,3.1,1.1,3.6,2.6h-4.9C1148.1,108.1,1147.6,108.6,1147.6,109.3z"/>
			</a>
		</g>
		<g id="minder_node11">
			<g id="node_expander7" class="st10">
				<path id="kity_path_442" class="st11" d="M1195,140.5c0,3.3-2.7,6-6,6s-6-2.7-6-6s2.7-6,6-6S1195,137.2,1195,140.5"/>
				<path id="kity_path_443" class="st8" d="M8.5,0"/>
			</g>
			<path id="node_outline8" class="st7" d="M1200,126.5h183c2.8,0,5,2.2,5,5v18c0,2.8-2.2,5-5,5h-183c-2.8,0-5-2.2-5-5v-18
				C1195,128.7,1197.2,126.5,1200,126.5z"/>
			<g id="node_text8">
				<text id="kity_text_145" text-rendering="inherit" transform="matrix(1 0 0 1 1200 142.3)" class="st2"><tspan x="0" y="0" class="st4 st12">/2/</tspan><tspan x="13.3" y="0" class="st6 st12">三次归类</tspan><tspan x="61.3" y="0" class="st4 st12">/</tspan><tspan x="64.7" y="0" class="st6 st12">分类</tspan><tspan x="88.7" y="0" class="st4 st12">1/</tspan><tspan x="98.7" y="0" class="st6 st12">注释系列</tspan></text>
			</g>
			
				<a id="kity_a_249" xlink:href="http://47.101.61.63:5244/2/%E4%B8%89%E6%AC%A1%E5%BD%92%E7%B1%BB/%E5%88%86%E7%B1%BB1/%E6%B3%A8%E9%87%8A%E7%B3%BB%E5%88%97" >
				<path id="kity_path_251" d="M1363,129.5h16c2.2,0,4,1.8,4,4v14c0,2.2-1.8,4-4,4h-16c-2.2,0-4-1.8-4-4v-14
					C1359,131.3,1360.8,129.5,1363,129.5z"/>
				<path id="kity_path_250" class="st13" d="M1377.6,145.7h-1.3c-1.7,0-3.1-1.1-3.6-2.6h4.9c0.7,0,1.3-0.6,1.3-1.3v-2.6
					c0-0.7-0.6-1.3-1.3-1.3h-4.9c0.5-1.5,1.9-2.6,3.6-2.6h1.3c2.1,0,3.8,1.7,3.8,3.8v2.6C1381.4,144,1379.7,145.7,1377.6,145.7z
					 M1366.1,140.6c0-0.7,0.6-1.3,1.3-1.3h7.7c0.7,0,1.3,0.6,1.3,1.3s-0.6,1.3-1.3,1.3h-7.7C1366.7,141.9,1366.1,141.3,1366.1,140.6
					z M1363.6,139.3v2.6c0,0.7,0.6,1.3,1.3,1.3h4.9c-0.5,1.5-1.9,2.6-3.6,2.6h-1.3c-2.1,0-3.8-1.7-3.8-3.8v-2.6
					c0-2.1,1.7-3.8,3.8-3.8h1.3c1.7,0,3.1,1.1,3.6,2.6h-4.9C1364.1,138.1,1363.6,138.6,1363.6,139.3z"/>
			</a>
		</g>
		<g id="minder_node12">
			<path id="node_outline15_3_" class="st7" d="M977,290.5c0,2.8-2.2,5-5,5h-88c-2.8,0-5-2.2-5-5"/>
			<path id="node_outline15_2_" class="st7" d="M879,169.5c0-2.8,2.2-5,5-5"/>
			
				<a id="kity_a_270" xlink:href="http://47.101.61.63:5244/2/%E5%B7%B2%E4%B8%8A%E4%BC%A0%E7%9A%84%E5%92%8C%E4%B8%8D%E4%B8%8A%E4%BC%A0%E7%9A%84/%E6%96%B0%E5%BB%BA%E6%96%87%E4%BB%B6%E5%A4%B9/%E6%95%B4%E7%90%86/%E6%8A%A4%E6%95%99" >
				<path id="kity_path_272" d="M938,270.5h16c2.2,0,4,1.8,4,4v14c0,2.2-1.8,4-4,4h-16c-2.2,0-4-1.8-4-4v-14
					C934,272.3,935.8,270.5,938,270.5z"/>
				<path id="kity_path_271" class="st13" d="M952.6,286.7h-1.3c-1.7,0-3.1-1.1-3.6-2.6h4.9c0.7,0,1.3-0.6,1.3-1.3v-2.6
					c0-0.7-0.6-1.3-1.3-1.3h-4.9c0.5-1.5,1.9-2.6,3.6-2.6h1.3c2.1,0,3.8,1.7,3.8,3.8v2.6C956.4,285,954.7,286.7,952.6,286.7z
					 M941.1,281.6c0-0.7,0.6-1.3,1.3-1.3h7.7c0.7,0,1.3,0.6,1.3,1.3s-0.6,1.3-1.3,1.3h-7.7C941.7,282.9,941.1,282.3,941.1,281.6z
					 M938.6,280.3v2.6c0,0.7,0.6,1.3,1.3,1.3h4.9c-0.5,1.5-1.9,2.6-3.6,2.6h-1.3c-2.1,0-3.8-1.7-3.8-3.8v-2.6c0-2.1,1.7-3.8,3.8-3.8
					h1.3c1.7,0,3.1,1.1,3.6,2.6h-4.9C939.1,279.1,938.6,279.6,938.6,280.3z"/>
			</a>
		</g>
		<g id="minder_node13">
			<g id="node_expander10" class="st10">
				<path id="kity_path_451" class="st11" d="M993,176.5c0,3.3-2.7,6-6,6s-6-2.7-6-6s2.7-6,6-6S993,173.2,993,176.5"/>
				<path id="kity_path_452" class="st8" d="M8.5,0"/>
			</g>
			<path id="node_outline11" class="st7" d="M998,162.5h96c2.8,0,5,2.2,5,5v18c0,2.8-2.2,5-5,5h-96c-2.8,0-5-2.2-5-5v-18
				C993,164.7,995.2,162.5,998,162.5z"/>
			<g id="node_text11">
				<text id="kity_text_151" text-rendering="inherit" transform="matrix(1 0 0 1 998 178.3)" class="st2"><tspan x="0" y="0" class="st4 st12">/t/</tspan><tspan x="10" y="0" class="st6 st12">整理</tspan><tspan x="34" y="0" class="st4 st12">/</tspan><tspan x="37.3" y="0" class="st6 st12">护教</tspan></text>
			</g>
			<a id="kity_a_258" xlink:href="http://47.101.61.63:5244/t/%E6%95%B4%E7%90%86/%E6%8A%A4%E6%95%99" >
				<path id="kity_path_260" d="M1074,165.5h16c2.2,0,4,1.8,4,4v14c0,2.2-1.8,4-4,4h-16c-2.2,0-4-1.8-4-4v-14
					C1070,167.3,1071.8,165.5,1074,165.5z"/>
				<path id="kity_path_259" class="st13" d="M1088.6,181.7h-1.3c-1.7,0-3.1-1.1-3.6-2.6h4.9c0.7,0,1.3-0.6,1.3-1.3v-2.6
					c0-0.7-0.6-1.3-1.3-1.3h-4.9c0.5-1.5,1.9-2.6,3.6-2.6h1.3c2.1,0,3.8,1.7,3.8,3.8v2.6C1092.4,180,1090.7,181.7,1088.6,181.7z
					 M1077.1,176.6c0-0.7,0.6-1.3,1.3-1.3h7.7c0.7,0,1.3,0.6,1.3,1.3s-0.6,1.3-1.3,1.3h-7.7C1077.7,177.9,1077.1,177.3,1077.1,176.6
					z M1074.6,175.3v2.6c0,0.7,0.6,1.3,1.3,1.3h4.9c-0.5,1.5-1.9,2.6-3.6,2.6h-1.3c-2.1,0-3.8-1.7-3.8-3.8v-2.6
					c0-2.1,1.7-3.8,3.8-3.8h1.3c1.7,0,3.1,1.1,3.6,2.6h-4.9C1075.1,174.1,1074.6,174.6,1074.6,175.3z"/>
			</a>
		</g>
		<g id="minder_node14">
			<g id="node_expander11" class="st10">
				<path id="kity_path_454" class="st11" d="M993,212.5c0,3.3-2.7,6-6,6s-6-2.7-6-6s2.7-6,6-6S993,209.2,993,212.5"/>
				<path id="kity_path_455" class="st8" d="M8.5,0"/>
			</g>
			<path id="node_outline12" class="st7" d="M998,198.5h96c2.8,0,5,2.2,5,5v18c0,2.8-2.2,5-5,5h-96c-2.8,0-5-2.2-5-5v-18
				C993,200.7,995.2,198.5,998,198.5z"/>
			<g id="node_text12">
				<text id="kity_text_153" text-rendering="inherit" transform="matrix(1 0 0 1 998 214.3)" class="st2"><tspan x="0" y="0" class="st4 st12">/r/</tspan><tspan x="10.7" y="0" class="st6 st12">整理</tspan><tspan x="34.7" y="0" class="st4 st12">/</tspan><tspan x="38" y="0" class="st6 st12">护教</tspan></text>
			</g>
			<a id="kity_a_261" xlink:href="http://47.101.61.63:5244/r/%E6%95%B4%E7%90%86/%E6%8A%A4%E6%95%99" >
				<path id="kity_path_263" d="M1074,201.5h16c2.2,0,4,1.8,4,4v14c0,2.2-1.8,4-4,4h-16c-2.2,0-4-1.8-4-4v-14
					C1070,203.3,1071.8,201.5,1074,201.5z"/>
				<path id="kity_path_262" class="st13" d="M1088.6,217.7h-1.3c-1.7,0-3.1-1.1-3.6-2.6h4.9c0.7,0,1.3-0.6,1.3-1.3v-2.6
					c0-0.7-0.6-1.3-1.3-1.3h-4.9c0.5-1.5,1.9-2.6,3.6-2.6h1.3c2.1,0,3.8,1.7,3.8,3.8v2.6C1092.4,216,1090.7,217.7,1088.6,217.7z
					 M1077.1,212.6c0-0.7,0.6-1.3,1.3-1.3h7.7c0.7,0,1.3,0.6,1.3,1.3s-0.6,1.3-1.3,1.3h-7.7C1077.7,213.9,1077.1,213.3,1077.1,212.6
					z M1074.6,211.3v2.6c0,0.7,0.6,1.3,1.3,1.3h4.9c-0.5,1.5-1.9,2.6-3.6,2.6h-1.3c-2.1,0-3.8-1.7-3.8-3.8v-2.6
					c0-2.1,1.7-3.8,3.8-3.8h1.3c1.7,0,3.1,1.1,3.6,2.6h-4.9C1075.1,210.1,1074.6,210.6,1074.6,211.3z"/>
			</a>
		</g>
		<g id="minder_node15">
			<g id="node_expander12" class="st10">
				<path id="kity_path_457" class="st11" d="M993,248.5c0,3.3-2.7,6-6,6s-6-2.7-6-6s2.7-6,6-6S993,245.2,993,248.5"/>
				<path id="kity_path_458" class="st8" d="M8.5,0"/>
			</g>
			<path id="node_outline13" class="st7" d="M998,234.5h283c2.8,0,5,2.2,5,5v18c0,2.8-2.2,5-5,5H998c-2.8,0-5-2.2-5-5v-18
				C993,236.7,995.2,234.5,998,234.5z"/>
			<g id="node_text13">
				<text id="kity_text_155" text-rendering="inherit" transform="matrix(1 0 0 1 998 250.3)" class="st2"><tspan x="0" y="0" class="st4 st12">/r/</tspan><tspan x="10.7" y="0" class="st6 st12">整理比较困难</tspan><tspan x="82.7" y="0" class="st4 st12">/</tspan><tspan x="86" y="0" class="st6 st12">书籍三部</tspan><tspan x="134" y="0" class="st4 st12">/</tspan><tspan x="137.3" y="0" class="st6 st12">书籍第三部</tspan><tspan x="197.3" y="0" class="st4 st12">/273</tspan><tspan x="220.7" y="0" class="st6 st12">异端</tspan></text>
			</g>
			
				<a id="kity_a_264" xlink:href="http://47.101.61.63:5244/r/%E6%95%B4%E7%90%86%E6%AF%94%E8%BE%83%E5%9B%B0%E9%9A%BE/%E4%B9%A6%E7%B1%8D%E4%B8%89%E9%83%A8/%E4%B9%A6%E7%B1%8D%E7%AC%AC%E4%B8%89%E9%83%A8/273%E5%BC%82%E7%AB%AF" >
				<path id="kity_path_266" d="M1261,237.5h16c2.2,0,4,1.8,4,4v14c0,2.2-1.8,4-4,4h-16c-2.2,0-4-1.8-4-4v-14
					C1257,239.3,1258.8,237.5,1261,237.5z"/>
				<path id="kity_path_265" class="st13" d="M1275.6,253.7h-1.3c-1.7,0-3.1-1.1-3.6-2.6h4.9c0.7,0,1.3-0.6,1.3-1.3v-2.6
					c0-0.7-0.6-1.3-1.3-1.3h-4.9c0.5-1.5,1.9-2.6,3.6-2.6h1.3c2.1,0,3.8,1.7,3.8,3.8v2.6C1279.4,252,1277.7,253.7,1275.6,253.7z
					 M1264.1,248.6c0-0.7,0.6-1.3,1.3-1.3h7.7c0.7,0,1.3,0.6,1.3,1.3s-0.6,1.3-1.3,1.3h-7.7C1264.7,249.9,1264.1,249.3,1264.1,248.6
					z M1261.6,247.3v2.6c0,0.7,0.6,1.3,1.3,1.3h4.9c-0.5,1.5-1.9,2.6-3.6,2.6h-1.3c-2.1,0-3.8-1.7-3.8-3.8v-2.6
					c0-2.1,1.7-3.8,3.8-3.8h1.3c1.7,0,3.1,1.1,3.6,2.6h-4.9C1262.1,246.1,1261.6,246.6,1261.6,247.3z"/>
			</a>
		</g>
		<g id="minder_node16">
			<g id="node_expander13" class="st10">
				<path id="kity_path_460" class="st11" d="M993,284.5c0,3.3-2.7,6-6,6s-6-2.7-6-6s2.7-6,6-6S993,281.2,993,284.5"/>
				<path id="kity_path_461" class="st8" d="M8.5,0"/>
			</g>
			<path id="node_outline14" class="st7" d="M998,270.5h281c2.8,0,5,2.2,5,5v18c0,2.8-2.2,5-5,5H998c-2.8,0-5-2.2-5-5v-18
				C993,272.7,995.2,270.5,998,270.5z"/>
			<g id="node_text14">
				<text id="kity_text_157" text-rendering="inherit" transform="matrix(1 0 0 1 998 286.3)" class="st2"><tspan x="0" y="0" class="st4 st12">/2/</tspan><tspan x="13.3" y="0" class="st6 st12">已上传的和不上传的</tspan><tspan x="121.3" y="0" class="st4 st12">/</tspan><tspan x="124.7" y="0" class="st6 st12">新建文件夹</tspan><tspan x="184.7" y="0" class="st4 st12">/</tspan><tspan x="188" y="0" class="st6 st12">整理</tspan><tspan x="212" y="0" class="st4 st12">/</tspan><tspan x="215.3" y="0" class="st6 st12">护教</tspan><tspan x="239.3" y="0" class="st4 st12">/</tspan></text>
			</g>
			
				<a id="kity_a_267" xlink:href="http://47.101.61.63:5244/2/%E5%B7%B2%E4%B8%8A%E4%BC%A0%E7%9A%84%E5%92%8C%E4%B8%8D%E4%B8%8A%E4%BC%A0%E7%9A%84/%E6%96%B0%E5%BB%BA%E6%96%87%E4%BB%B6%E5%A4%B9/%E6%95%B4%E7%90%86/%E6%8A%A4%E6%95%99/%E5%88%9B%E9%80%A0%E8%AE%BA%20%E8%BF%9B%E5%8C%96%E8%AE%BA?sort=size&amp;ascending=0" >
				<path id="kity_path_269" d="M1259,273.5h16c2.2,0,4,1.8,4,4v14c0,2.2-1.8,4-4,4h-16c-2.2,0-4-1.8-4-4v-14
					C1255,275.3,1256.8,273.5,1259,273.5z"/>
				<path id="kity_path_268" class="st13" d="M1273.6,289.7h-1.3c-1.7,0-3.1-1.1-3.6-2.6h4.9c0.7,0,1.3-0.6,1.3-1.3v-2.6
					c0-0.7-0.6-1.3-1.3-1.3h-4.9c0.5-1.5,1.9-2.6,3.6-2.6h1.3c2.1,0,3.8,1.7,3.8,3.8v2.6C1277.4,288,1275.7,289.7,1273.6,289.7z
					 M1262.1,284.6c0-0.7,0.6-1.3,1.3-1.3h7.7c0.7,0,1.3,0.6,1.3,1.3s-0.6,1.3-1.3,1.3h-7.7C1262.7,285.9,1262.1,285.3,1262.1,284.6
					z M1259.6,283.3v2.6c0,0.7,0.6,1.3,1.3,1.3h4.9c-0.5,1.5-1.9,2.6-3.6,2.6h-1.3c-2.1,0-3.8-1.7-3.8-3.8v-2.6
					c0-2.1,1.7-3.8,3.8-3.8h1.3c1.7,0,3.1,1.1,3.6,2.6h-4.9C1260.1,282.1,1259.6,282.6,1259.6,283.3z"/>
			</a>
		</g>
		<g id="minder_node17">
			<g id="node_text18">
				<text id="kity_text_165" text-rendering="inherit" transform="matrix(1 0 0 1 906 432.3)" class="st2"><tspan x="0" y="0" class="st4 st12">swl</tspan><tspan x="17.3" y="0" class="st6 st12">图书馆</tspan></text>
			</g>
		</g>
		<g id="minder_node18">
			<g id="node_expander15" class="st10">
				<path id="kity_path_466" class="st11" d="M1028,370.5c0,3.3-2.7,6-6,6s-6-2.7-6-6s2.7-6,6-6S1028,367.2,1028,370.5"/>
				<path id="kity_path_467" class="st8" d="M8.5,0"/>
			</g>
			<path id="node_outline16" class="st7" d="M1033,356.5h228c2.8,0,5,2.2,5,5v18c0,2.8-2.2,5-5,5h-228c-2.8,0-5-2.2-5-5v-18
				C1028,358.7,1030.2,356.5,1033,356.5z"/>
			<g id="node_text16">
				<text id="kity_text_161" text-rendering="inherit" transform="matrix(1 0 0 1 1033 372.3)" class="st2"><tspan x="0" y="0" class="st4 st12">/r/</tspan><tspan x="10.7" y="0" class="st6 st12">整理比较困难</tspan><tspan x="82.7" y="0" class="st4 st12">/</tspan><tspan x="86" y="0" class="st6 st12">苏文隆基督徒图书馆</tspan></text>
			</g>
			
				<a id="kity_a_273" xlink:href="http://47.101.61.63:5244/r/%E6%95%B4%E7%90%86%E6%AF%94%E8%BE%83%E5%9B%B0%E9%9A%BE/%E8%8B%8F%E6%96%87%E9%9A%86%E5%9F%BA%E7%9D%A3%E5%BE%92%E5%9B%BE%E4%B9%A6%E9%A6%86" >
				<path id="kity_path_275" d="M1241,359.5h16c2.2,0,4,1.8,4,4v14c0,2.2-1.8,4-4,4h-16c-2.2,0-4-1.8-4-4v-14
					C1237,361.3,1238.8,359.5,1241,359.5z"/>
				<path id="kity_path_274" class="st13" d="M1255.6,375.7h-1.3c-1.7,0-3.1-1.1-3.6-2.6h4.9c0.7,0,1.3-0.6,1.3-1.3v-2.6
					c0-0.7-0.6-1.3-1.3-1.3h-4.9c0.5-1.5,1.9-2.6,3.6-2.6h1.3c2.1,0,3.8,1.7,3.8,3.8v2.6C1259.4,374,1257.7,375.7,1255.6,375.7z
					 M1244.1,370.6c0-0.7,0.6-1.3,1.3-1.3h7.7c0.7,0,1.3,0.6,1.3,1.3s-0.6,1.3-1.3,1.3h-7.7C1244.7,371.9,1244.1,371.3,1244.1,370.6
					z M1241.6,369.3v2.6c0,0.7,0.6,1.3,1.3,1.3h4.9c-0.5,1.5-1.9,2.6-3.6,2.6h-1.3c-2.1,0-3.8-1.7-3.8-3.8v-2.6
					c0-2.1,1.7-3.8,3.8-3.8h1.3c1.7,0,3.1,1.1,3.6,2.6h-4.9C1242.1,368.1,1241.6,368.6,1241.6,369.3z"/>
			</a>
		</g>
		<g id="minder_node19">
			<g id="node_expander16" class="st10">
				<path id="kity_path_469" class="st11" d="M1024,414.5c0,3.3-2.7,6-6,6s-6-2.7-6-6s2.7-6,6-6S1024,411.2,1024,414.5"/>
				<path id="kity_path_470" class="st8" d="M8.5,0"/>
			</g>
			<path id="node_outline17" class="st7" d="M1029,400.5h151c2.8,0,5,2.2,5,5v18c0,2.8-2.2,5-5,5h-151c-2.8,0-5-2.2-5-5v-18
				C1024,402.7,1026.2,400.5,1029,400.5z"/>
			<g id="node_text17">
				<text id="kity_text_163" text-rendering="inherit" transform="matrix(1 0 0 1 1029 416.3)" class="st2"><tspan x="0" y="0" class="st4 st12">/f/</tspan><tspan x="10" y="0" class="st6 st12">苏文隆基督徒图书馆</tspan></text>
			</g>
			
				<a id="kity_a_276" xlink:href="http://47.101.61.63:5244/f/%E8%8B%8F%E6%96%87%E9%9A%86%E5%9F%BA%E7%9D%A3%E5%BE%92%E5%9B%BE%E4%B9%A6%E9%A6%86" >
				<path id="kity_path_278" d="M1160,403.5h16c2.2,0,4,1.8,4,4v14c0,2.2-1.8,4-4,4h-16c-2.2,0-4-1.8-4-4v-14
					C1156,405.3,1157.8,403.5,1160,403.5z"/>
				<path id="kity_path_277" class="st13" d="M1174.6,419.7h-1.3c-1.7,0-3.1-1.1-3.6-2.6h4.9c0.7,0,1.3-0.6,1.3-1.3v-2.6
					c0-0.7-0.6-1.3-1.3-1.3h-4.9c0.5-1.5,1.9-2.6,3.6-2.6h1.3c2.1,0,3.8,1.7,3.8,3.8v2.6C1178.4,418,1176.7,419.7,1174.6,419.7z
					 M1163.1,414.6c0-0.7,0.6-1.3,1.3-1.3h7.7c0.7,0,1.3,0.6,1.3,1.3s-0.6,1.3-1.3,1.3h-7.7C1163.7,415.9,1163.1,415.3,1163.1,414.6
					z M1160.6,413.3v2.6c0,0.7,0.6,1.3,1.3,1.3h4.9c-0.5,1.5-1.9,2.6-3.6,2.6h-1.3c-2.1,0-3.8-1.7-3.8-3.8v-2.6
					c0-2.1,1.7-3.8,3.8-3.8h1.3c1.7,0,3.1,1.1,3.6,2.6h-4.9C1161.1,412.1,1160.6,412.6,1160.6,413.3z"/>
			</a>
		</g>
		<g id="minder_node20">
			<g id="node_expander18" class="st10">
				<path id="kity_path_475" class="st11" d="M635,813.5c0,3.3-2.7,6-6,6s-6-2.7-6-6s2.7-6,6-6S635,810.2,635,813.5"/>
				<path id="kity_path_476" class="st8" d="M8.5,0"/>
			</g>
			<path id="node_outline19" class="st7" d="M640,799.5h223c2.8,0,5,2.2,5,5v18c0,2.8-2.2,5-5,5H640c-2.8,0-5-2.2-5-5v-18
				C635,801.7,637.2,799.5,640,799.5z"/>
			<g id="node_text19">
				<text id="kity_text_167" text-rendering="inherit" transform="matrix(1 0 0 1 640 815.3)" class="st2"><tspan x="0" y="0" class="st4 st12">/2/</tspan><tspan x="13.3" y="0" class="st6 st12">已上传的和不上传的</tspan><tspan x="121.3" y="0" class="st4 st12">/</tspan><tspan x="124.7" y="0" class="st6 st12">新建文件夹</tspan><tspan x="184.7" y="0" class="st4 st12">/</tspan></text>
			</g>
			
				<a id="kity_a_279" xlink:href="http://47.101.61.63:5244/2/%E5%B7%B2%E4%B8%8A%E4%BC%A0%E7%9A%84%E5%92%8C%E4%B8%8D%E4%B8%8A%E4%BC%A0%E7%9A%84/%E6%96%B0%E5%BB%BA%E6%96%87%E4%BB%B6%E5%A4%B9/" >
				<path id="kity_path_281" d="M843,802.5h16c2.2,0,4,1.8,4,4v14c0,2.2-1.8,4-4,4h-16c-2.2,0-4-1.8-4-4v-14
					C839,804.3,840.8,802.5,843,802.5z"/>
				<path id="kity_path_280" class="st13" d="M857.6,818.7h-1.3c-1.7,0-3.1-1.1-3.6-2.6h4.9c0.7,0,1.3-0.6,1.3-1.3v-2.6
					c0-0.7-0.6-1.3-1.3-1.3h-4.9c0.5-1.5,1.9-2.6,3.6-2.6h1.3c2.1,0,3.8,1.7,3.8,3.8v2.6C861.4,817,859.7,818.7,857.6,818.7z
					 M846.1,813.6c0-0.7,0.6-1.3,1.3-1.3h7.7c0.7,0,1.3,0.6,1.3,1.3s-0.6,1.3-1.3,1.3h-7.7C846.7,814.9,846.1,814.3,846.1,813.6z
					 M843.6,812.3v2.6c0,0.7,0.6,1.3,1.3,1.3h4.9c-0.5,1.5-1.9,2.6-3.6,2.6h-1.3c-2.1,0-3.8-1.7-3.8-3.8v-2.6c0-2.1,1.7-3.8,3.8-3.8
					h1.3c1.7,0,3.1,1.1,3.6,2.6h-4.9C844.1,811.1,843.6,811.6,843.6,812.3z"/>
			</a>
		</g>
		<g id="minder_node21">
			<g id="node_expander19" class="st10">
				<path id="kity_path_478" class="st11" d="M647,730.5c0,3.3-2.7,6-6,6s-6-2.7-6-6s2.7-6,6-6S647,727.2,647,730.5"/>
				<path id="kity_path_479" class="st8" d="M8.5,0"/>
			</g>
			<path id="node_outline20" class="st7" d="M652,716.5h67c2.8,0,5,2.2,5,5v18c0,2.8-2.2,5-5,5h-67c-2.8,0-5-2.2-5-5v-18
				C647,718.7,649.2,716.5,652,716.5z"/>
			<g id="node_text20">
				<text id="kity_text_169" text-rendering="inherit" transform="matrix(1 0 0 1 652 732.3)" class="st2"><tspan x="0" y="0" class="st4 st12">/t/</tspan><tspan x="10" y="0" class="st6 st12">整理</tspan></text>
			</g>
			<a id="kity_a_282" xlink:href="http://47.101.61.63:5244/t/%E6%95%B4%E7%90%86" >
				<path id="kity_path_284" d="M699,719.5h16c2.2,0,4,1.8,4,4v14c0,2.2-1.8,4-4,4h-16c-2.2,0-4-1.8-4-4v-14
					C695,721.3,696.8,719.5,699,719.5z"/>
				<path id="kity_path_283" class="st13" d="M713.6,735.7h-1.3c-1.7,0-3.1-1.1-3.6-2.6h4.9c0.7,0,1.3-0.6,1.3-1.3v-2.6
					c0-0.7-0.6-1.3-1.3-1.3h-4.9c0.5-1.5,1.9-2.6,3.6-2.6h1.3c2.1,0,3.8,1.7,3.8,3.8v2.6C717.4,734,715.7,735.7,713.6,735.7z
					 M702.1,730.6c0-0.7,0.6-1.3,1.3-1.3h7.7c0.7,0,1.3,0.6,1.3,1.3s-0.6,1.3-1.3,1.3h-7.7C702.7,731.9,702.1,731.3,702.1,730.6z
					 M699.6,729.3v2.6c0,0.7,0.6,1.3,1.3,1.3h4.9c-0.5,1.5-1.9,2.6-3.6,2.6h-1.3c-2.1,0-3.8-1.7-3.8-3.8v-2.6c0-2.1,1.7-3.8,3.8-3.8
					h1.3c1.7,0,3.1,1.1,3.6,2.6h-4.9C700.1,728.1,699.6,728.6,699.6,729.3z"/>
			</a>
		</g>
		<g id="minder_node22">
			<g id="node_expander25">
				<path id="kity_path_496_3_" class="st8" d="M910,545.5"/>
				<path id="kity_path_496_2_" class="st8" d="M898,545.5"/>
				<path id="kity_path_496_1_" class="st8" d="M910,545.5"/>
			</g>
			<path id="node_outline26" class="st7" d="M915,536.5h24c2.8,0,5,2.2,5,5v8c0,2.8-2.2,5-5,5h-24c-2.8,0-5-2.2-5-5v-8
				C910,538.7,912.2,536.5,915,536.5z"/>
			<g id="node_text26">
				<text id="kity_text_181" text-rendering="inherit" transform="matrix(1 0 0 1 915 547.3)" class="st2 st6 st12">查经</text>
			</g>
		</g>
		<g id="minder_node23">
			<g id="node_expander20" class="st10">
				<path id="kity_path_481" class="st11" d="M960,473.5c0,3.3-2.7,6-6,6s-6-2.7-6-6s2.7-6,6-6S960,470.2,960,473.5"/>
				<path id="kity_path_482" class="st8" d="M8.5,0"/>
			</g>
			<path id="node_outline21" class="st7" d="M965,459.5h96c2.8,0,5,2.2,5,5v18c0,2.8-2.2,5-5,5h-96c-2.8,0-5-2.2-5-5v-18
				C960,461.7,962.2,459.5,965,459.5z"/>
			<g id="node_text21">
				<text id="kity_text_171" text-rendering="inherit" transform="matrix(1 0 0 1 965 475.3)" class="st2"><tspan x="0" y="0" class="st4 st12">/t/</tspan><tspan x="10" y="0" class="st6 st12">整理</tspan><tspan x="34" y="0" class="st4 st12">/</tspan><tspan x="37.3" y="0" class="st6 st12">查经</tspan></text>
			</g>
			<a id="kity_a_285" xlink:href="http://47.101.61.63:5244/t/%E6%95%B4%E7%90%86/%E6%9F%A5%E7%BB%8F" >
				<path id="kity_path_287" d="M1041,462.5h16c2.2,0,4,1.8,4,4v14c0,2.2-1.8,4-4,4h-16c-2.2,0-4-1.8-4-4v-14
					C1037,464.3,1038.8,462.5,1041,462.5z"/>
				<path id="kity_path_286" class="st13" d="M1055.6,478.7h-1.3c-1.7,0-3.1-1.1-3.6-2.6h4.9c0.7,0,1.3-0.6,1.3-1.3v-2.6
					c0-0.7-0.6-1.3-1.3-1.3h-4.9c0.5-1.5,1.9-2.6,3.6-2.6h1.3c2.1,0,3.8,1.7,3.8,3.8v2.6C1059.4,477,1057.7,478.7,1055.6,478.7z
					 M1044.1,473.6c0-0.7,0.6-1.3,1.3-1.3h7.7c0.7,0,1.3,0.6,1.3,1.3s-0.6,1.3-1.3,1.3h-7.7C1044.7,474.9,1044.1,474.3,1044.1,473.6
					z M1041.6,472.3v2.6c0,0.7,0.6,1.3,1.3,1.3h4.9c-0.5,1.5-1.9,2.6-3.6,2.6h-1.3c-2.1,0-3.8-1.7-3.8-3.8v-2.6
					c0-2.1,1.7-3.8,3.8-3.8h1.3c1.7,0,3.1,1.1,3.6,2.6h-4.9C1042.1,471.1,1041.6,471.6,1041.6,472.3z"/>
			</a>
		</g>
		<g id="minder_node24">
			<g id="node_expander21" class="st10">
				<path id="kity_path_484" class="st11" d="M960,509.5c0,3.3-2.7,6-6,6s-6-2.7-6-6s2.7-6,6-6S960,506.2,960,509.5"/>
				<path id="kity_path_485" class="st8" d="M8.5,0"/>
			</g>
			<path id="node_outline22" class="st7" d="M965,495.5h96c2.8,0,5,2.2,5,5l0,0v18c0,2.8-2.2,5-5,5h-96c-2.8,0-5-2.2-5-5v-18
				C960,497.7,962.2,495.5,965,495.5L965,495.5z"/>
			<g id="node_text22">
				<text id="kity_text_173" text-rendering="inherit" transform="matrix(1 0 0 1 965 511.3)" class="st2"><tspan x="0" y="0" class="st4 st12">/r/</tspan><tspan x="10.7" y="0" class="st6 st12">整理</tspan><tspan x="34.7" y="0" class="st4 st12">/</tspan><tspan x="38" y="0" class="st6 st12">查经</tspan></text>
			</g>
			<a id="kity_a_288" xlink:href="http://47.101.61.63:5244/r/%E6%95%B4%E7%90%86/%E6%9F%A5%E7%BB%8F" >
				<path id="kity_path_290" d="M1041,498.5h16c2.2,0,4,1.8,4,4v14c0,2.2-1.8,4-4,4h-16c-2.2,0-4-1.8-4-4v-14
					C1037,500.3,1038.8,498.5,1041,498.5z"/>
				<path id="kity_path_289" class="st13" d="M1055.6,514.7h-1.3c-1.7,0-3.1-1.1-3.6-2.6h4.9c0.7,0,1.3-0.6,1.3-1.3v-2.6
					c0-0.7-0.6-1.3-1.3-1.3h-4.9c0.5-1.5,1.9-2.6,3.6-2.6h1.3c2.1,0,3.8,1.7,3.8,3.8v2.6C1059.4,513,1057.7,514.7,1055.6,514.7z
					 M1044.1,509.6c0-0.7,0.6-1.3,1.3-1.3h7.7c0.7,0,1.3,0.6,1.3,1.3s-0.6,1.3-1.3,1.3h-7.7C1044.7,510.9,1044.1,510.3,1044.1,509.6
					z M1041.6,508.3v2.6c0,0.7,0.6,1.3,1.3,1.3h4.9c-0.5,1.5-1.9,2.6-3.6,2.6h-1.3c-2.1,0-3.8-1.7-3.8-3.8v-2.6
					c0-2.1,1.7-3.8,3.8-3.8h1.3c1.7,0,3.1,1.1,3.6,2.6h-4.9C1042.1,507.1,1041.6,507.6,1041.6,508.3z"/>
			</a>
		</g>
		<g id="minder_node25">
			<g id="node_expander22" class="st10">
				<path id="kity_path_487" class="st11" d="M960,545.5c0,3.3-2.7,6-6,6s-6-2.7-6-6s2.7-6,6-6S960,542.2,960,545.5"/>
				<path id="kity_path_488" class="st8" d="M8.5,0"/>
			</g>
			<path id="node_outline23" class="st7" d="M965,531.5h126c2.8,0,5,2.2,5,5v18c0,2.8-2.2,5-5,5H965c-2.8,0-5-2.2-5-5v-18
				C960,533.7,962.2,531.5,965,531.5z"/>
			<g id="node_text23">
				<text id="kity_text_175" text-rendering="inherit" transform="matrix(1 0 0 1 965 547.3)" class="st2"><tspan x="0" y="0" class="st4 st12">/z/</tspan><tspan x="12.7" y="0" class="st6 st12">二次归类</tspan><tspan x="60.7" y="0" class="st4 st12">/</tspan><tspan x="64" y="0" class="st6 st12">查经</tspan><tspan x="88" y="0" class="st4 st12">/</tspan></text>
			</g>
			<a id="kity_a_291" xlink:href="http://47.101.61.63:5244/z/%E4%BA%8C%E6%AC%A1%E5%BD%92%E7%B1%BB/%E6%9F%A5%E7%BB%8F/" >
				<path id="kity_path_293" d="M1071,534.5h16c2.2,0,4,1.8,4,4v14c0,2.2-1.8,4-4,4h-16c-2.2,0-4-1.8-4-4v-14
					C1067,536.3,1068.8,534.5,1071,534.5z"/>
				<path id="kity_path_292" class="st13" d="M1085.6,550.7h-1.3c-1.7,0-3.1-1.1-3.6-2.6h4.9c0.7,0,1.3-0.6,1.3-1.3v-2.6
					c0-0.7-0.6-1.3-1.3-1.3h-4.9c0.5-1.5,1.9-2.6,3.6-2.6h1.3c2.1,0,3.8,1.7,3.8,3.8v2.6C1089.4,549,1087.7,550.7,1085.6,550.7z
					 M1074.1,545.6c0-0.7,0.6-1.3,1.3-1.3h7.7c0.7,0,1.3,0.6,1.3,1.3s-0.6,1.3-1.3,1.3h-7.7C1074.7,546.9,1074.1,546.3,1074.1,545.6
					z M1071.6,544.3v2.6c0,0.7,0.6,1.3,1.3,1.3h4.9c-0.5,1.5-1.9,2.6-3.6,2.6h-1.3c-2.1,0-3.8-1.7-3.8-3.8v-2.6
					c0-2.1,1.7-3.8,3.8-3.8h1.3c1.7,0,3.1,1.1,3.6,2.6h-4.9C1072.1,543.1,1071.6,543.6,1071.6,544.3z"/>
			</a>
		</g>
		<g id="minder_node26">
			<g id="node_expander23" class="st10">
				<path id="kity_path_490" class="st11" d="M960,581.5c0,3.3-2.7,6-6,6s-6-2.7-6-6s2.7-6,6-6S960,578.2,960,581.5"/>
				<path id="kity_path_491" class="st8" d="M8.5,0"/>
			</g>
			<path id="node_outline24" class="st7" d="M965,567.5h281c2.8,0,5,2.2,5,5v18c0,2.8-2.2,5-5,5H965c-2.8,0-5-2.2-5-5v-18
				C960,569.7,962.2,567.5,965,567.5z"/>
			<g id="node_text24">
				<text id="kity_text_177" text-rendering="inherit" transform="matrix(1 0 0 1 965 583.3)" class="st2"><tspan x="0" y="0" class="st4 st12">r/</tspan><tspan x="7.3" y="0" class="st6 st12">整理比较困难</tspan><tspan x="79.3" y="0" class="st4 st12">/</tspan><tspan x="82.7" y="0" class="st6 st12">格式分类</tspan><tspan x="130.7" y="0" class="st4 st12">/</tspan><tspan x="134" y="0" class="st6 st12">二次归类</tspan><tspan x="182" y="0" class="st4 st12">/</tspan><tspan x="185.3" y="0" class="st6 st12">查经和小组</tspan></text>
			</g>
			
				<a id="kity_a_294" xlink:href="http://47.101.61.63:5244/r/%E6%95%B4%E7%90%86%E6%AF%94%E8%BE%83%E5%9B%B0%E9%9A%BE/%E6%A0%BC%E5%BC%8F%E5%88%86%E7%B1%BB/%E4%BA%8C%E6%AC%A1%E5%BD%92%E7%B1%BB/%E6%9F%A5%E7%BB%8F%E5%92%8C%E5%B0%8F%E7%BB%84?sort=size&amp;ascending=0" >
				<path id="kity_path_296" d="M1226,570.5h16c2.2,0,4,1.8,4,4v14c0,2.2-1.8,4-4,4h-16c-2.2,0-4-1.8-4-4v-14
					C1222,572.3,1223.8,570.5,1226,570.5z"/>
				<path id="kity_path_295" class="st13" d="M1240.6,586.7h-1.3c-1.7,0-3.1-1.1-3.6-2.6h4.9c0.7,0,1.3-0.6,1.3-1.3v-2.6
					c0-0.7-0.6-1.3-1.3-1.3h-4.9c0.5-1.5,1.9-2.6,3.6-2.6h1.3c2.1,0,3.8,1.7,3.8,3.8v2.6C1244.4,585,1242.7,586.7,1240.6,586.7z
					 M1229.1,581.6c0-0.7,0.6-1.3,1.3-1.3h7.7c0.7,0,1.3,0.6,1.3,1.3s-0.6,1.3-1.3,1.3h-7.7C1229.7,582.9,1229.1,582.3,1229.1,581.6
					z M1226.6,580.3v2.6c0,0.7,0.6,1.3,1.3,1.3h4.9c-0.5,1.5-1.9,2.6-3.6,2.6h-1.3c-2.1,0-3.8-1.7-3.8-3.8v-2.6
					c0-2.1,1.7-3.8,3.8-3.8h1.3c1.7,0,3.1,1.1,3.6,2.6h-4.9C1227.1,579.1,1226.6,579.6,1226.6,580.3z"/>
			</a>
		</g>
		<g id="minder_node27">
			<g id="node_expander24" class="st10">
				<path id="kity_path_493" class="st11" d="M960,617.5c0,3.3-2.7,6-6,6s-6-2.7-6-6s2.7-6,6-6S960,614.2,960,617.5"/>
				<path id="kity_path_494" class="st8" d="M8.5,0"/>
			</g>
			<path id="node_outline25" class="st7" d="M965,603.5h89c2.8,0,5,2.2,5,5v18c0,2.8-2.2,5-5,5h-89c-2.8,0-5-2.2-5-5v-18
				C960,605.7,962.2,603.5,965,603.5z"/>
			<g id="node_text25">
				<text id="kity_text_179" text-rendering="inherit" transform="matrix(1 0 0 1 965 619.3)" class="st2 st6 st12">改革宗查经</text>
			</g>
			
				<a id="kity_a_297" xlink:href="http://47.101.61.63:5244/2/%E5%B7%B2%E4%B8%8A%E4%BC%A0%E7%9A%84%E5%92%8C%E4%B8%8D%E4%B8%8A%E4%BC%A0%E7%9A%84/%E6%94%B9%E9%9D%A9%E5%AE%97/%E6%94%B9%E9%9D%A9%E5%AE%97%E6%9F%A5%E7%BB%8F" >
				<path id="kity_path_299" d="M1034,606.5h16c2.2,0,4,1.8,4,4v14c0,2.2-1.8,4-4,4h-16c-2.2,0-4-1.8-4-4v-14
					C1030,608.3,1031.8,606.5,1034,606.5z"/>
				<path id="kity_path_298" class="st13" d="M1048.6,622.7h-1.3c-1.7,0-3.1-1.1-3.6-2.6h4.9c0.7,0,1.3-0.6,1.3-1.3v-2.6
					c0-0.7-0.6-1.3-1.3-1.3h-4.9c0.5-1.5,1.9-2.6,3.6-2.6h1.3c2.1,0,3.8,1.7,3.8,3.8v2.6C1052.4,621,1050.7,622.7,1048.6,622.7z
					 M1037.1,617.6c0-0.7,0.6-1.3,1.3-1.3h7.7c0.7,0,1.3,0.6,1.3,1.3s-0.6,1.3-1.3,1.3h-7.7C1037.7,618.9,1037.1,618.3,1037.1,617.6
					z M1034.6,616.3v2.6c0,0.7,0.6,1.3,1.3,1.3h4.9c-0.5,1.5-1.9,2.6-3.6,2.6h-1.3c-2.1,0-3.8-1.7-3.8-3.8v-2.6
					c0-2.1,1.7-3.8,3.8-3.8h1.3c1.7,0,3.1,1.1,3.6,2.6h-4.9C1035.1,615.1,1034.6,615.6,1034.6,616.3z"/>
			</a>
		</g>
		<g id="minder_node28">
			<g id="node_expander26" class="st10">
				<path id="kity_path_499" class="st11" d="M949,929c0,3.3-2.7,6-6,6s-6-2.7-6-6s2.7-6,6-6S949,925.7,949,929L949,929"/>
				<path id="kity_path_500" class="st8" d="M8.5,0"/>
			</g>
			<g id="node_text27">
				<text id="kity_text_183" text-rendering="inherit" transform="matrix(1 0 0 1 956 968.3)" class="st2 st6 st12">赞美诗</text>
			</g>
			<a id="kity_a_300" xlink:href="http://47.101.61.63:5244/e/%E8%B5%9E%E7%BE%8E%E8%AF%97-43.4" >
				<path id="kity_path_302" d="M1002,955.5h16c2.2,0,4,1.8,4,4v14c0,2.2-1.8,4-4,4h-16c-2.2,0-4-1.8-4-4v-14
					C998,957.3,999.8,955.5,1002,955.5z"/>
				<path id="kity_path_301" class="st13" d="M1016.6,971.7h-1.3c-1.7,0-3.1-1.1-3.6-2.6h4.9c0.7,0,1.3-0.6,1.3-1.3v-2.6
					c0-0.7-0.6-1.3-1.3-1.3h-4.9c0.5-1.5,1.9-2.6,3.6-2.6h1.3c2.1,0,3.8,1.7,3.8,3.8v2.6C1020.4,970,1018.7,971.7,1016.6,971.7z
					 M1005.1,966.6c0-0.7,0.6-1.3,1.3-1.3h7.7c0.7,0,1.3,0.6,1.3,1.3s-0.6,1.3-1.3,1.3h-7.7C1005.7,967.9,1005.1,967.3,1005.1,966.6
					z M1002.6,965.3v2.6c0,0.7,0.6,1.3,1.3,1.3h4.9c-0.5,1.5-1.9,2.6-3.6,2.6h-1.3c-2.1,0-3.8-1.7-3.8-3.8v-2.6
					c0-2.1,1.7-3.8,3.8-3.8h1.3c1.7,0,3.1,1.1,3.6,2.6h-4.9C1003.1,964.1,1002.6,964.6,1002.6,965.3z"/>
			</a>
		</g>
		<g id="minder_node29">
			<g id="node_text32">
				<text id="kity_text_193" text-rendering="inherit" transform="matrix(1 0 0 1 974 844.3)" class="st2 st6 st12">主日学</text>
			</g>
		</g>
		<g id="minder_node30">
			<g id="node_expander27" class="st10">
				<path id="kity_path_502" class="st11" d="M1063,736.5c0,3.3-2.7,6-6,6s-6-2.7-6-6s2.7-6,6-6S1063,733.2,1063,736.5"/>
				<path id="kity_path_503" class="st8" d="M8.5,0"/>
			</g>
			<path id="node_outline28" class="st7" d="M1068,722.5h103c2.8,0,5,2.2,5,5v18c0,2.8-2.2,5-5,5h-103c-2.8,0-5-2.2-5-5v-18
				C1063,724.7,1065.2,722.5,1068,722.5z"/>
			<g id="node_text28">
				<text id="kity_text_185" text-rendering="inherit" transform="matrix(1 0 0 1 1068 738.3)" class="st2"><tspan x="0" y="0" class="st4 st12">r/</tspan><tspan x="7.3" y="0" class="st6 st12">整理</tspan><tspan x="31.3" y="0" class="st4 st12">/</tspan><tspan x="34.7" y="0" class="st6 st12">青少年</tspan></text>
			</g>
			<a id="kity_a_303" xlink:href="http://47.101.61.63:5244/r/%E6%95%B4%E7%90%86/%E9%9D%92%E5%B0%91%E5%B9%B4" >
				<path id="kity_path_305" d="M1151,725.5h16c2.2,0,4,1.8,4,4v14c0,2.2-1.8,4-4,4h-16c-2.2,0-4-1.8-4-4v-14
					C1147,727.3,1148.8,725.5,1151,725.5z"/>
				<path id="kity_path_304" class="st13" d="M1165.6,741.7h-1.3c-1.7,0-3.1-1.1-3.6-2.6h4.9c0.7,0,1.3-0.6,1.3-1.3v-2.6
					c0-0.7-0.6-1.3-1.3-1.3h-4.9c0.5-1.5,1.9-2.6,3.6-2.6h1.3c2.1,0,3.8,1.7,3.8,3.8v2.6C1169.4,740,1167.7,741.7,1165.6,741.7z
					 M1154.1,736.6c0-0.7,0.6-1.3,1.3-1.3h7.7c0.7,0,1.3,0.6,1.3,1.3s-0.6,1.3-1.3,1.3h-7.7C1154.7,737.9,1154.1,737.3,1154.1,736.6
					z M1151.6,735.3v2.6c0,0.7,0.6,1.3,1.3,1.3h4.9c-0.5,1.5-1.9,2.6-3.6,2.6h-1.3c-2.1,0-3.8-1.7-3.8-3.8v-2.6
					c0-2.1,1.7-3.8,3.8-3.8h1.3c1.7,0,3.1,1.1,3.6,2.6h-4.9C1152.1,734.1,1151.6,734.6,1151.6,735.3z"/>
			</a>
		</g>
		<g id="minder_node31">
			<g id="node_expander28" class="st10">
				<path id="kity_path_505" class="st11" d="M1063,772.5c0,3.3-2.7,6-6,6s-6-2.7-6-6s2.7-6,6-6S1063,769.2,1063,772.5"/>
				<path id="kity_path_506" class="st8" d="M8.5,0"/>
			</g>
			<path id="node_outline29" class="st7" d="M1068,758.5h108c2.8,0,5,2.2,5,5v18c0,2.8-2.2,5-5,5h-108c-2.8,0-5-2.2-5-5v-18
				C1063,760.7,1065.2,758.5,1068,758.5z"/>
			<g id="node_text29">
				<text id="kity_text_187" text-rendering="inherit" transform="matrix(1 0 0 1 1068 774.3)" class="st2"><tspan x="0" y="0" class="st4 st12">r/</tspan><tspan x="7.3" y="0" class="st6 st12">整理</tspan><tspan x="31.3" y="0" class="st4 st12">/</tspan><tspan x="34.7" y="0" class="st6 st12">主日学</tspan><tspan x="70.7" y="0" class="st4 st12">/</tspan></text>
			</g>
			<a id="kity_a_306" xlink:href="http://47.101.61.63:5244/r/%E6%95%B4%E7%90%86/%E4%B8%BB%E6%97%A5%E5%AD%A6/" >
				<path id="kity_path_308" d="M1156,761.5h16c2.2,0,4,1.8,4,4v14c0,2.2-1.8,4-4,4h-16c-2.2,0-4-1.8-4-4v-14
					C1152,763.3,1153.8,761.5,1156,761.5z"/>
				<path id="kity_path_307" class="st13" d="M1170.6,777.7h-1.3c-1.7,0-3.1-1.1-3.6-2.6h4.9c0.7,0,1.3-0.6,1.3-1.3v-2.6
					c0-0.7-0.6-1.3-1.3-1.3h-4.9c0.5-1.5,1.9-2.6,3.6-2.6h1.3c2.1,0,3.8,1.7,3.8,3.8v2.6C1174.4,776,1172.7,777.7,1170.6,777.7z
					 M1159.1,772.6c0-0.7,0.6-1.3,1.3-1.3h7.7c0.7,0,1.3,0.6,1.3,1.3s-0.6,1.3-1.3,1.3h-7.7C1159.7,773.9,1159.1,773.3,1159.1,772.6
					z M1156.6,771.3v2.6c0,0.7,0.6,1.3,1.3,1.3h4.9c-0.5,1.5-1.9,2.6-3.6,2.6h-1.3c-2.1,0-3.8-1.7-3.8-3.8v-2.6
					c0-2.1,1.7-3.8,3.8-3.8h1.3c1.7,0,3.1,1.1,3.6,2.6h-4.9C1157.1,770.1,1156.6,770.6,1156.6,771.3z"/>
			</a>
		</g>
		<g id="minder_node32">
			<g id="node_expander29" class="st10">
				<path id="kity_path_508" class="st11" d="M1063,808.5c0,3.3-2.7,6-6,6s-6-2.7-6-6s2.7-6,6-6S1063,805.2,1063,808.5"/>
				<path id="kity_path_509" class="st8" d="M8.5,0"/>
			</g>
			<path id="node_outline30" class="st7" d="M1068,794.5h283c2.8,0,5,2.2,5,5v18c0,2.8-2.2,5-5,5h-283c-2.8,0-5-2.2-5-5v-18
				C1063,796.7,1065.2,794.5,1068,794.5z"/>
			<g id="node_text30">
				<text id="kity_text_189" text-rendering="inherit" transform="matrix(1 0 0 1 1068 810.3)" class="st2"><tspan x="0" y="0" class="st4 st12">2/</tspan><tspan x="10" y="0" class="st6 st12">已上传的和不上传的</tspan><tspan x="118" y="0" class="st4 st12">/</tspan><tspan x="121.3" y="0" class="st6 st12">新建文件夹</tspan><tspan x="181.3" y="0" class="st4 st12">/</tspan><tspan x="184.7" y="0" class="st6 st12">整理</tspan><tspan x="208.7" y="0" class="st4 st12">/</tspan><tspan x="212" y="0" class="st6 st12">主日学</tspan></text>
			</g>
			
				<a id="kity_a_309" xlink:href="http://47.101.61.63:5244/2/%E5%B7%B2%E4%B8%8A%E4%BC%A0%E7%9A%84%E5%92%8C%E4%B8%8D%E4%B8%8A%E4%BC%A0%E7%9A%84/%E6%96%B0%E5%BB%BA%E6%96%87%E4%BB%B6%E5%A4%B9/%E6%95%B4%E7%90%86/%E4%B8%BB%E6%97%A5%E5%AD%A6" >
				<path id="kity_path_311" d="M1331,797.5h16c2.2,0,4,1.8,4,4v14c0,2.2-1.8,4-4,4h-16c-2.2,0-4-1.8-4-4v-14
					C1327,799.3,1328.8,797.5,1331,797.5z"/>
				<path id="kity_path_310" class="st13" d="M1345.6,813.7h-1.3c-1.7,0-3.1-1.1-3.6-2.6h4.9c0.7,0,1.3-0.6,1.3-1.3v-2.6
					c0-0.7-0.6-1.3-1.3-1.3h-4.9c0.5-1.5,1.9-2.6,3.6-2.6h1.3c2.1,0,3.8,1.7,3.8,3.8v2.6C1349.4,812,1347.7,813.7,1345.6,813.7z
					 M1334.1,808.6c0-0.7,0.6-1.3,1.3-1.3h7.7c0.7,0,1.3,0.6,1.3,1.3s-0.6,1.3-1.3,1.3h-7.7C1334.7,809.9,1334.1,809.3,1334.1,808.6
					z M1331.6,807.3v2.6c0,0.7,0.6,1.3,1.3,1.3h4.9c-0.5,1.5-1.9,2.6-3.6,2.6h-1.3c-2.1,0-3.8-1.7-3.8-3.8v-2.6
					c0-2.1,1.7-3.8,3.8-3.8h1.3c1.7,0,3.1,1.1,3.6,2.6h-4.9C1332.1,806.1,1331.6,806.6,1331.6,807.3z"/>
			</a>
		</g>
		<g id="minder_node33">
			<g id="node_expander30" class="st10">
				<path id="kity_path_511" class="st11" d="M1063,844.5c0,3.3-2.7,6-6,6s-6-2.7-6-6s2.7-6,6-6S1063,841.2,1063,844.5"/>
				<path id="kity_path_512" class="st8" d="M8.5,0"/>
			</g>
			<path id="node_outline31" class="st7" d="M1068,830.5h125c2.8,0,5,2.2,5,5v18c0,2.8-2.2,5-5,5h-125c-2.8,0-5-2.2-5-5v-18
				C1063,832.7,1065.2,830.5,1068,830.5z"/>
			<g id="node_text31">
				<text id="kity_text_191" text-rendering="inherit" transform="matrix(1 0 0 1 1068 846.3)" class="st2 st6 st12">搜索主日学的资料</text>
			</g>
			
				<a id="kity_a_312" xlink:href="http://47.101.61.63:1234/?search=%E4%B8%BB%E6%97%A5%E5%AD%A6%20doc%20%7C%20%E4%B8%BB%E6%97%A5%E5%AD%A6%20pdf%20%7C%20%E4%B8%BB%E6%97%A5%E5%AD%A6%20txt%7C%20%20%E4%B8%BB%E6%97%A5%E5%AD%A6%20chm%7C%20%E4%B8%BB%E6%97%A5%E5%AD%A6rar%7C%20%E4%B8%BB%E6%97%A5%E5%AD%A6%20zip%7C&amp;sort=size&amp;ascending=0&amp;offset=32" >
				<path id="kity_path_314" d="M1173,833.5h16c2.2,0,4,1.8,4,4v14c0,2.2-1.8,4-4,4h-16c-2.2,0-4-1.8-4-4v-14
					C1169,835.3,1170.8,833.5,1173,833.5z"/>
				<path id="kity_path_313" class="st13" d="M1187.6,849.7h-1.3c-1.7,0-3.1-1.1-3.6-2.6h4.9c0.7,0,1.3-0.6,1.3-1.3v-2.6
					c0-0.7-0.6-1.3-1.3-1.3h-4.9c0.5-1.5,1.9-2.6,3.6-2.6h1.3c2.1,0,3.8,1.7,3.8,3.8v2.6C1191.4,848,1189.7,849.7,1187.6,849.7z
					 M1176.1,844.6c0-0.7,0.6-1.3,1.3-1.3h7.7c0.7,0,1.3,0.6,1.3,1.3s-0.6,1.3-1.3,1.3h-7.7C1176.7,845.9,1176.1,845.3,1176.1,844.6
					z M1173.6,843.3v2.6c0,0.7,0.6,1.3,1.3,1.3h4.9c-0.5,1.5-1.9,2.6-3.6,2.6h-1.3c-2.1,0-3.8-1.7-3.8-3.8v-2.6
					c0-2.1,1.7-3.8,3.8-3.8h1.3c1.7,0,3.1,1.1,3.6,2.6h-4.9C1174.1,842.1,1173.6,842.6,1173.6,843.3z"/>
			</a>
		</g>
		<g id="minder_node34">
			<g id="node_expander36">
				<path id="kity_path_529_4_" class="st8" d="M598,944"/>
				<path id="kity_path_529_3_" class="st8" d="M586,944"/>
				<path id="kity_path_529_1_" class="st8" d="M598,944"/>
				<path id="kity_path_530_1_" class="st9" d="M587.5,944"/>
			</g>
			<g id="node_text37">
			</g>
		</g>
		<g id="minder_node35">
			<g id="node_expander33" class="st10">
				<path id="kity_path_520" class="st11" d="M725,908.5c0,3.3-2.7,6-6,6s-6-2.7-6-6s2.7-6,6-6S725,905.2,725,908.5L725,908.5"/>
				<path id="kity_path_521" class="st8" d="M8.5,0"/>
			</g>
			<path id="node_outline34" class="st7" d="M730,894.5h63c2.8,0,5,2.2,5,5v18c0,2.8-2.2,5-5,5h-63c-2.8,0-5-2.2-5-5v-18
				C725,896.7,727.2,894.5,730,894.5z"/>
			<g id="node_text34">
				<text id="kity_text_197" text-rendering="inherit" transform="matrix(1 0 0 1 730 910.3)" class="st2"><tspan x="0" y="0" class="st4 st12">j/</tspan><tspan x="6" y="0" class="st6 st12">视频</tspan></text>
			</g>
			<a id="kity_a_318" xlink:href="http://47.101.61.63:5244/j/%E8%A7%86%E9%A2%91" >
				<path id="kity_path_320" d="M773,897.5h16c2.2,0,4,1.8,4,4v14c0,2.2-1.8,4-4,4h-16c-2.2,0-4-1.8-4-4v-14
					C769,899.3,770.8,897.5,773,897.5z"/>
				<path id="kity_path_319" class="st13" d="M787.6,913.7h-1.3c-1.7,0-3.1-1.1-3.6-2.6h4.9c0.7,0,1.3-0.6,1.3-1.3v-2.6
					c0-0.7-0.6-1.3-1.3-1.3h-4.9c0.5-1.5,1.9-2.6,3.6-2.6h1.3c2.1,0,3.8,1.7,3.8,3.8v2.6C791.4,912,789.7,913.7,787.6,913.7z
					 M776.1,908.6c0-0.7,0.6-1.3,1.3-1.3h7.7c0.7,0,1.3,0.6,1.3,1.3s-0.6,1.3-1.3,1.3h-7.7C776.7,909.9,776.1,909.3,776.1,908.6z
					 M773.6,907.3v2.6c0,0.7,0.6,1.3,1.3,1.3h4.9c-0.5,1.5-1.9,2.6-3.6,2.6h-1.3c-2.1,0-3.8-1.7-3.8-3.8v-2.6c0-2.1,1.7-3.8,3.8-3.8
					h1.3c1.7,0,3.1,1.1,3.6,2.6h-4.9C774.1,906.1,773.6,906.6,773.6,907.3z"/>
			</a>
		</g>
		<g id="minder_node36">
			<g id="node_expander34" class="st10">
				<path id="kity_path_523" class="st11" d="M725,944.5c0,3.3-2.7,6-6,6s-6-2.7-6-6s2.7-6,6-6S725,941.2,725,944.5"/>
				<path id="kity_path_524" class="st8" d="M8.5,0"/>
			</g>
			<path id="node_outline35" class="st7" d="M730,930.5h115c2.8,0,5,2.2,5,5v18c0,2.8-2.2,5-5,5H730c-2.8,0-5-2.2-5-5v-18
				C725,932.7,727.2,930.5,730,930.5z"/>
			<g id="node_text35">
				<text id="kity_text_199" text-rendering="inherit" transform="matrix(1 0 0 1 730 946.3)" class="st2"><tspan x="0" y="0" class="st4 st12">r/za/</tspan><tspan x="23.3" y="0" class="st6 st12">电影动画类</tspan></text>
			</g>
			<a id="kity_a_321" xlink:href="http://47.101.61.63:5244/r/za/%E7%94%B5%E5%BD%B1%E5%8A%A8%E7%94%BB%E7%B1%BB" >
				<path id="kity_path_323" d="M825,933.5h16c2.2,0,4,1.8,4,4v14c0,2.2-1.8,4-4,4h-16c-2.2,0-4-1.8-4-4v-14
					C821,935.3,822.8,933.5,825,933.5z"/>
				<path id="kity_path_322" class="st13" d="M839.6,949.7h-1.3c-1.7,0-3.1-1.1-3.6-2.6h4.9c0.7,0,1.3-0.6,1.3-1.3v-2.6
					c0-0.7-0.6-1.3-1.3-1.3h-4.9c0.5-1.5,1.9-2.6,3.6-2.6h1.3c2.1,0,3.8,1.7,3.8,3.8v2.6C843.4,948,841.7,949.7,839.6,949.7z
					 M828.1,944.6c0-0.7,0.6-1.3,1.3-1.3h7.7c0.7,0,1.3,0.6,1.3,1.3s-0.6,1.3-1.3,1.3h-7.7C828.7,945.9,828.1,945.3,828.1,944.6z
					 M825.6,943.3v2.6c0,0.7,0.6,1.3,1.3,1.3h4.9c-0.5,1.5-1.9,2.6-3.6,2.6h-1.3c-2.1,0-3.8-1.7-3.8-3.8v-2.6c0-2.1,1.7-3.8,3.8-3.8
					h1.3c1.7,0,3.1,1.1,3.6,2.6h-4.9C826.1,942.1,825.6,942.6,825.6,943.3z"/>
			</a>
		</g>
		<g id="minder_node37">
			<g id="node_expander35" class="st10">
				<path id="kity_path_526" class="st11" d="M725,980.5c0,3.3-2.7,6-6,6s-6-2.7-6-6s2.7-6,6-6S725,977.2,725,980.5"/>
				<path id="kity_path_527" class="st8" d="M8.5,0"/>
			</g>
			<path id="node_outline36" class="st7" d="M730,966.5h108c2.8,0,5,2.2,5,5v18c0,2.8-2.2,5-5,5H730c-2.8,0-5-2.2-5-5v-18
				C725,968.7,727.2,966.5,730,966.5z"/>
			<g id="node_text36">
				<text id="kity_text_201" text-rendering="inherit" transform="matrix(1 0 0 1 730 982.3)" class="st2"><tspan x="0" y="0" class="st4 st12">t/za/</tspan><tspan x="22.7" y="0" class="st6 st12">其它</tspan><tspan x="46.7" y="0" class="st4 st12">/</tspan><tspan x="50" y="0" class="st6 st12">电影</tspan></text>
			</g>
			<a id="kity_a_324" xlink:href="http://47.101.61.63:5244/t/za/%E5%85%B6%E5%AE%83/%E7%94%B5%E5%BD%B1" >
				<path id="kity_path_326" d="M818,969.5h16c2.2,0,4,1.8,4,4v14c0,2.2-1.8,4-4,4h-16c-2.2,0-4-1.8-4-4v-14
					C814,971.3,815.8,969.5,818,969.5z"/>
				<path id="kity_path_325" class="st13" d="M832.6,985.7h-1.3c-1.7,0-3.1-1.1-3.6-2.6h4.9c0.7,0,1.3-0.6,1.3-1.3v-2.6
					c0-0.7-0.6-1.3-1.3-1.3h-4.9c0.5-1.5,1.9-2.6,3.6-2.6h1.3c2.1,0,3.8,1.7,3.8,3.8v2.6C836.4,984,834.7,985.7,832.6,985.7z
					 M821.1,980.6c0-0.7,0.6-1.3,1.3-1.3h7.7c0.7,0,1.3,0.6,1.3,1.3s-0.6,1.3-1.3,1.3h-7.7C821.7,981.9,821.1,981.3,821.1,980.6z
					 M818.6,979.3v2.6c0,0.7,0.6,1.3,1.3,1.3h4.9c-0.5,1.5-1.9,2.6-3.6,2.6h-1.3c-2.1,0-3.8-1.7-3.8-3.8v-2.6c0-2.1,1.7-3.8,3.8-3.8
					h1.3c1.7,0,3.1,1.1,3.6,2.6h-4.9C819.1,978.1,818.6,978.6,818.6,979.3z"/>
			</a>
		</g>
		<g id="minder_node38">
			<g id="node_expander37" class="st10">
				<path id="kity_path_532" class="st11" d="M216,949c0,3.3-2.7,6-6,6s-6-2.7-6-6s2.7-6,6-6S216,945.7,216,949L216,949"/>
				<path id="kity_path_533" class="st8" d="M8.5,0"/>
			</g>
			<path id="node_outline38_3_" class="st15" d="M324,894.5"/>
			<path id="node_outline38_4_" class="st15" d="M217,897.5c0-1.7,1.3-3,3-3h0"/>
			<g id="node_text38">
				<text id="kity_text_205" text-rendering="inherit" transform="matrix(1 0 0 1 287.7111 941.3405)" class="st2 st6 st14">搜索</text>
			</g>
			<a id="kity_a_327" xlink:href="http://47.101.61.63:1234/" >
				<path id="kity_path_329" d="M281,975.5h16c2.2,0,4,1.8,4,4v14c0,2.2-1.8,4-4,4h-16c-2.2,0-4-1.8-4-4v-14
					C277,977.3,278.8,975.5,281,975.5z"/>
				<path id="kity_path_328" class="st13" d="M295.6,991.7h-1.3c-1.7,0-3.1-1.1-3.6-2.6h4.9c0.7,0,1.3-0.6,1.3-1.3v-2.6
					c0-0.7-0.6-1.3-1.3-1.3h-4.9c0.5-1.5,1.9-2.6,3.6-2.6h1.3c2.1,0,3.8,1.7,3.8,3.8v2.6C299.4,990,297.7,991.7,295.6,991.7z
					 M284.1,986.6c0-0.7,0.6-1.3,1.3-1.3h7.7c0.7,0,1.3,0.6,1.3,1.3s-0.6,1.3-1.3,1.3h-7.7C284.7,987.9,284.1,987.3,284.1,986.6z
					 M281.6,985.3v2.6c0,0.7,0.6,1.3,1.3,1.3h4.9c-0.5,1.5-1.9,2.6-3.6,2.6h-1.3c-2.1,0-3.8-1.7-3.8-3.8v-2.6c0-2.1,1.7-3.8,3.8-3.8
					h1.3c1.7,0,3.1,1.1,3.6,2.6h-4.9C282.1,984.1,281.6,984.6,281.6,985.3z"/>
			</a>
		</g>
		<g id="minder_node39">
			<g id="node_expander42">
				<path id="kity_path_547_4_" class="st8" d="M438,400"/>
				<path id="kity_path_547_3_" class="st8" d="M426,400"/>
				<path id="kity_path_547_1_" class="st8" d="M438,400"/>
				<path id="kity_path_548" class="st9" d="M427.5,400h9"/>
			</g>
			<path id="node_outline43_4_" class="st15" d="M422,450.5"/>
			<path id="node_outline43_1_" class="st15" d="M425,352.5"/>
		</g>
		<g id="minder_node40">
			<g id="node_expander38" class="st10">
				<path id="kity_path_535" class="st11" d="M311,346.5c0,3.3-2.7,6-6,6s-6-2.7-6-6s2.7-6,6-6S311,343.2,311,346.5"/>
				<path id="kity_path_536" class="st8" d="M8.5,0"/>
			</g>
			<path id="node_outline39" class="st7" d="M160,332.5h134c2.8,0,5,2.2,5,5v18c0,2.8-2.2,5-5,5H160c-2.8,0-5-2.2-5-5v-18
				C155,334.7,157.2,332.5,160,332.5z"/>
			<g id="node_text39">
				<text id="kity_text_207" text-rendering="inherit" transform="matrix(1 0 0 1 160 348.3)" class="st2"><tspan x="0" y="0" class="st4 st12">/r/</tspan><tspan x="10.7" y="0" class="st6 st12">改革宗</tspan><tspan x="46.7" y="0" class="st4 st12"> </tspan><tspan x="50" y="0" class="st6 st12">音频</tspan><tspan x="74" y="0" class="st4 st12"> </tspan><tspan x="77.3" y="0" class="st6 st12">视频</tspan></text>
			</g>
			
				<a id="kity_a_330" xlink:href="http://47.101.61.63:5244/r/%E6%94%B9%E9%9D%A9%E5%AE%97%20%E9%9F%B3%E9%A2%91%20%E8%A7%86%E9%A2%91" >
				<path id="kity_path_332" d="M274,335.5h16c2.2,0,4,1.8,4,4v14c0,2.2-1.8,4-4,4h-16c-2.2,0-4-1.8-4-4v-14
					C270,337.3,271.8,335.5,274,335.5z"/>
				<path id="kity_path_331" class="st13" d="M288.6,351.7h-1.3c-1.7,0-3.1-1.1-3.6-2.6h4.9c0.7,0,1.3-0.6,1.3-1.3v-2.6
					c0-0.7-0.6-1.3-1.3-1.3h-4.9c0.5-1.5,1.9-2.6,3.6-2.6h1.3c2.1,0,3.8,1.7,3.8,3.8v2.6C292.4,350,290.7,351.7,288.6,351.7z
					 M277.1,346.6c0-0.7,0.6-1.3,1.3-1.3h7.7c0.7,0,1.3,0.6,1.3,1.3s-0.6,1.3-1.3,1.3h-7.7C277.7,347.9,277.1,347.3,277.1,346.6z
					 M274.6,345.3v2.6c0,0.7,0.6,1.3,1.3,1.3h4.9c-0.5,1.5-1.9,2.6-3.6,2.6h-1.3c-2.1,0-3.8-1.7-3.8-3.8v-2.6c0-2.1,1.7-3.8,3.8-3.8
					h1.3c1.7,0,3.1,1.1,3.6,2.6h-4.9C275.1,344.1,274.6,344.6,274.6,345.3z"/>
			</a>
		</g>
		<g id="minder_node41">
			<g id="node_expander39" class="st10">
				<path id="kity_path_538" class="st11" d="M311,382.5c0,3.3-2.7,6-6,6s-6-2.7-6-6s2.7-6,6-6S311,379.2,311,382.5"/>
				<path id="kity_path_539" class="st8" d="M8.5,0"/>
			</g>
			<path id="node_outline40" class="st7" d="M215,368.5h79c2.8,0,5,2.2,5,5v18c0,2.8-2.2,5-5,5h-79c-2.8,0-5-2.2-5-5v-18
				C210,370.7,212.2,368.5,215,368.5L215,368.5z"/>
			<g id="node_text40">
				<text id="kity_text_209" text-rendering="inherit" transform="matrix(1 0 0 1 215 384.3)" class="st2"><tspan x="0" y="0" class="st4 st12">/t/</tspan><tspan x="10" y="0" class="st6 st12">音视频</tspan></text>
			</g>
			<a id="kity_a_333" xlink:href="http://47.101.61.63:5244/t/%E9%9F%B3%E8%A7%86%E9%A2%91" >
				<path id="kity_path_335" d="M274,371.5h16c2.2,0,4,1.8,4,4v14c0,2.2-1.8,4-4,4h-16c-2.2,0-4-1.8-4-4v-14
					C270,373.3,271.8,371.5,274,371.5z"/>
				<path id="kity_path_334" class="st13" d="M288.6,387.7h-1.3c-1.7,0-3.1-1.1-3.6-2.6h4.9c0.7,0,1.3-0.6,1.3-1.3v-2.6
					c0-0.7-0.6-1.3-1.3-1.3h-4.9c0.5-1.5,1.9-2.6,3.6-2.6h1.3c2.1,0,3.8,1.7,3.8,3.8v2.6C292.4,386,290.7,387.7,288.6,387.7z
					 M277.1,382.6c0-0.7,0.6-1.3,1.3-1.3h7.7c0.7,0,1.3,0.6,1.3,1.3s-0.6,1.3-1.3,1.3h-7.7C277.7,383.9,277.1,383.3,277.1,382.6z
					 M274.6,381.3v2.6c0,0.7,0.6,1.3,1.3,1.3h4.9c-0.5,1.5-1.9,2.6-3.6,2.6h-1.3c-2.1,0-3.8-1.7-3.8-3.8v-2.6c0-2.1,1.7-3.8,3.8-3.8
					h1.3c1.7,0,3.1,1.1,3.6,2.6h-4.9C275.1,380.1,274.6,380.6,274.6,381.3z"/>
			</a>
		</g>
		<g id="minder_node42">
			<g id="node_expander40" class="st10">
				<path id="kity_path_541" class="st11" d="M311,418.5c0,3.3-2.7,6-6,6s-6-2.7-6-6s2.7-6,6-6S311,415.2,311,418.5"/>
				<path id="kity_path_542" class="st8" d="M8.5,0"/>
			</g>
			<path id="node_outline41" class="st7" d="M253,404.5h41c2.8,0,5,2.2,5,5v18c0,2.8-2.2,5-5,5h-41c-2.8,0-5-2.2-5-5v-18
				C248,406.7,250.2,404.5,253,404.5L253,404.5z"/>
			<g id="node_text41">
				<text id="kity_text_211" text-rendering="inherit" transform="matrix(1 0 0 1 253 420.3)" class="st2 st4 st12">/3</text>
			</g>
			<a id="kity_a_336" xlink:href="http://47.101.61.63:5244/3" >
				<path id="kity_path_338" d="M274,407.5h16c2.2,0,4,1.8,4,4v14c0,2.2-1.8,4-4,4h-16c-2.2,0-4-1.8-4-4v-14
					C270,409.3,271.8,407.5,274,407.5z"/>
				<path id="kity_path_337" class="st13" d="M288.6,423.7h-1.3c-1.7,0-3.1-1.1-3.6-2.6h4.9c0.7,0,1.3-0.6,1.3-1.3v-2.6
					c0-0.7-0.6-1.3-1.3-1.3h-4.9c0.5-1.5,1.9-2.6,3.6-2.6h1.3c2.1,0,3.8,1.7,3.8,3.8v2.6C292.4,422,290.7,423.7,288.6,423.7z
					 M277.1,418.6c0-0.7,0.6-1.3,1.3-1.3h7.7c0.7,0,1.3,0.6,1.3,1.3s-0.6,1.3-1.3,1.3h-7.7C277.7,419.9,277.1,419.3,277.1,418.6z
					 M274.6,417.3v2.6c0,0.7,0.6,1.3,1.3,1.3h4.9c-0.5,1.5-1.9,2.6-3.6,2.6h-1.3c-2.1,0-3.8-1.7-3.8-3.8v-2.6c0-2.1,1.7-3.8,3.8-3.8
					h1.3c1.7,0,3.1,1.1,3.6,2.6h-4.9C275.1,416.1,274.6,416.6,274.6,417.3z"/>
			</a>
		</g>
		<g id="minder_node43">
			<g id="node_expander41" class="st10">
				<path id="kity_path_544" class="st11" d="M311,454.5c0,3.3-2.7,6-6,6s-6-2.7-6-6s2.7-6,6-6S311,451.2,311,454.5L311,454.5"/>
				<path id="kity_path_545" class="st8" d="M8.5,0"/>
			</g>
			<path id="node_outline42" class="st7" d="M253,440.5h41c2.8,0,5,2.2,5,5v18c0,2.8-2.2,5-5,5h-41c-2.8,0-5-2.2-5-5v-18
				C248,442.7,250.2,440.5,253,440.5L253,440.5z"/>
			<g id="node_text42">
				<text id="kity_text_213" text-rendering="inherit" transform="matrix(1 0 0 1 253 456.3)" class="st2 st4 st12">/h</text>
			</g>
			<a id="kity_a_339" xlink:href="http://47.101.61.63:5244/h" >
				<path id="kity_path_341" d="M274,443.5h16c2.2,0,4,1.8,4,4v14c0,2.2-1.8,4-4,4h-16c-2.2,0-4-1.8-4-4v-14
					C270,445.3,271.8,443.5,274,443.5z"/>
				<path id="kity_path_340" class="st13" d="M288.6,459.7h-1.3c-1.7,0-3.1-1.1-3.6-2.6h4.9c0.7,0,1.3-0.6,1.3-1.3v-2.6
					c0-0.7-0.6-1.3-1.3-1.3h-4.9c0.5-1.5,1.9-2.6,3.6-2.6h1.3c2.1,0,3.8,1.7,3.8,3.8v2.6C292.4,458,290.7,459.7,288.6,459.7z
					 M277.1,454.6c0-0.7,0.6-1.3,1.3-1.3h7.7c0.7,0,1.3,0.6,1.3,1.3s-0.6,1.3-1.3,1.3h-7.7C277.7,455.9,277.1,455.3,277.1,454.6z
					 M274.6,453.3v2.6c0,0.7,0.6,1.3,1.3,1.3h4.9c-0.5,1.5-1.9,2.6-3.6,2.6h-1.3c-2.1,0-3.8-1.7-3.8-3.8v-2.6c0-2.1,1.7-3.8,3.8-3.8
					h1.3c1.7,0,3.1,1.1,3.6,2.6h-4.9C275.1,452.1,274.6,452.6,274.6,453.3z"/>
			</a>
		</g>
		<g id="minder_node44">
			<g id="node_expander48">
				<path id="kity_path_565_4_" class="st8" d="M373,593.5"/>
				<path id="kity_path_565_3_" class="st8" d="M361,593.5"/>
				<path id="kity_path_565_1_" class="st8" d="M373,593.5"/>
				<path id="kity_path_566" class="st9" d="M362.5,593.5h9"/>
			</g>
			<path id="node_outline49" class="st15" d="M265,580.5h92c1.7,0,3,1.3,3,3v20c0,1.7-1.3,3-3,3h-92c-1.7,0-3-1.3-3-3v-20
				C262,581.8,263.3,580.5,265,580.5z"/>
			<g id="node_text49">
				<text id="kity_text_227" text-rendering="inherit" transform="matrix(1 0 0 1 282 595.6)" class="st2 st6 st14">新增加的</text>
			</g>
		</g>
		<g id="minder_node45">
			<g id="node_expander43" class="st10">
				<path id="kity_path_550" class="st11" d="M258,521.5c0,3.3-2.7,6-6,6s-6-2.7-6-6s2.7-6,6-6S258,518.2,258,521.5"/>
				<path id="kity_path_551" class="st8" d="M8.5,0"/>
			</g>
			<path id="node_outline44" class="st7" d="M186,507.5h55c2.8,0,5,2.2,5,5v18c0,2.8-2.2,5-5,5h-55c-2.8,0-5-2.2-5-5v-18
				C181,509.7,183.2,507.5,186,507.5z"/>
			<g id="node_text44">
				<text id="kity_text_217" text-rendering="inherit" transform="matrix(1 0 0 1 186 523.3)" class="st2"><tspan x="0" y="0" class="st4 st12">/r/</tspan><tspan x="10.7" y="0" class="st6 st12">新</tspan></text>
			</g>
			<a id="kity_a_342" xlink:href="http://47.101.61.63:5244/r/%E6%96%B0" >
				<path id="kity_path_344" d="M221,510.5h16c2.2,0,4,1.8,4,4v14c0,2.2-1.8,4-4,4h-16c-2.2,0-4-1.8-4-4v-14
					C217,512.3,218.8,510.5,221,510.5z"/>
				<path id="kity_path_343" class="st13" d="M235.6,526.7h-1.3c-1.7,0-3.1-1.1-3.6-2.6h4.9c0.7,0,1.3-0.6,1.3-1.3v-2.6
					c0-0.7-0.6-1.3-1.3-1.3h-4.9c0.5-1.5,1.9-2.6,3.6-2.6h1.3c2.1,0,3.8,1.7,3.8,3.8v2.6C239.4,525,237.7,526.7,235.6,526.7z
					 M224.1,521.6c0-0.7,0.6-1.3,1.3-1.3h7.7c0.7,0,1.3,0.6,1.3,1.3s-0.6,1.3-1.3,1.3h-7.7C224.7,522.9,224.1,522.3,224.1,521.6z
					 M221.6,520.3v2.6c0,0.7,0.6,1.3,1.3,1.3h4.9c-0.5,1.5-1.9,2.6-3.6,2.6h-1.3c-2.1,0-3.8-1.7-3.8-3.8v-2.6c0-2.1,1.7-3.8,3.8-3.8
					h1.3c1.7,0,3.1,1.1,3.6,2.6h-4.9C222.1,519.1,221.6,519.6,221.6,520.3z"/>
			</a>
		</g>
		<g id="minder_node46">
			<g id="node_expander44" class="st10">
				<path id="kity_path_553" class="st11" d="M258,557.5c0,3.3-2.7,6-6,6s-6-2.7-6-6s2.7-6,6-6S258,554.2,258,557.5"/>
				<path id="kity_path_554" class="st8" d="M8.5,0"/>
			</g>
			<path id="node_outline45" class="st7" d="M109,543.5h132c2.8,0,5,2.2,5,5v18c0,2.8-2.2,5-5,5H109c-2.8,0-5-2.2-5-5v-18
				C104,545.7,106.2,543.5,109,543.5z"/>
			<g id="node_text45">
				<text id="kity_text_219" text-rendering="inherit" transform="matrix(1 0 0 1 109 559.3)" class="st2"><tspan x="0" y="0" class="st4 st12">/r/</tspan><tspan x="10.7" y="0" class="st6 st12">改革宗电子书</tspan><tspan x="82.7" y="0" class="st4 st12">/</tspan><tspan x="86" y="0" class="st6 st12">新</tspan></text>
			</g>
			<a id="kity_a_345" xlink:href="http://47.101.61.63:5244/r/%E6%94%B9%E9%9D%A9%E5%AE%97%E7%94%B5%E5%AD%90%E4%B9%A6/%E6%96%B0" >
				<path id="kity_path_347" d="M221,546.5h16c2.2,0,4,1.8,4,4v14c0,2.2-1.8,4-4,4h-16c-2.2,0-4-1.8-4-4v-14
					C217,548.3,218.8,546.5,221,546.5z"/>
				<path id="kity_path_346" class="st13" d="M235.6,562.7h-1.3c-1.7,0-3.1-1.1-3.6-2.6h4.9c0.7,0,1.3-0.6,1.3-1.3v-2.6
					c0-0.7-0.6-1.3-1.3-1.3h-4.9c0.5-1.5,1.9-2.6,3.6-2.6h1.3c2.1,0,3.8,1.7,3.8,3.8v2.6C239.4,561,237.7,562.7,235.6,562.7z
					 M224.1,557.6c0-0.7,0.6-1.3,1.3-1.3h7.7c0.7,0,1.3,0.6,1.3,1.3s-0.6,1.3-1.3,1.3h-7.7C224.7,558.9,224.1,558.3,224.1,557.6z
					 M221.6,556.3v2.6c0,0.7,0.6,1.3,1.3,1.3h4.9c-0.5,1.5-1.9,2.6-3.6,2.6h-1.3c-2.1,0-3.8-1.7-3.8-3.8v-2.6c0-2.1,1.7-3.8,3.8-3.8
					h1.3c1.7,0,3.1,1.1,3.6,2.6h-4.9C222.1,555.1,221.6,555.6,221.6,556.3z"/>
			</a>
		</g>
		<g id="minder_node47">
			<g id="node_expander45" class="st10">
				<path id="kity_path_556" class="st11" d="M258,593.5c0,3.3-2.7,6-6,6s-6-2.7-6-6s2.7-6,6-6S258,590.2,258,593.5"/>
				<path id="kity_path_557" class="st8" d="M8.5,0"/>
			</g>
			<path id="node_outline46" class="st7" d="M34,579.5h207c2.8,0,5,2.2,5,5v18c0,2.8-2.2,5-5,5H34c-2.8,0-5-2.2-5-5v-18
				C29,581.7,31.2,579.5,34,579.5z"/>
			<g id="node_text46">
				<text id="kity_text_221" text-rendering="inherit" transform="matrix(1 0 0 1 34 595.3)" class="st2"><tspan x="0" y="0" class="st4 st12">2/</tspan><tspan x="10" y="0" class="st6 st12">已上传的和不上传的</tspan><tspan x="118" y="0" class="st4 st12">/</tspan><tspan x="121.3" y="0" class="st6 st12">改革宗</tspan><tspan x="157.3" y="0" class="st4 st12">/</tspan><tspan x="160.7" y="0" class="st6 st12">新</tspan></text>
			</g>
			
				<a id="kity_a_348" xlink:href="http://47.101.61.63:5244/2/%E5%B7%B2%E4%B8%8A%E4%BC%A0%E7%9A%84%E5%92%8C%E4%B8%8D%E4%B8%8A%E4%BC%A0%E7%9A%84/%E6%94%B9%E9%9D%A9%E5%AE%97/%E6%96%B0" >
				<path id="kity_path_350" d="M221,582.5h16c2.2,0,4,1.8,4,4v14c0,2.2-1.8,4-4,4h-16c-2.2,0-4-1.8-4-4v-14
					C217,584.3,218.8,582.5,221,582.5z"/>
				<path id="kity_path_349" class="st13" d="M235.6,598.7h-1.3c-1.7,0-3.1-1.1-3.6-2.6h4.9c0.7,0,1.3-0.6,1.3-1.3v-2.6
					c0-0.7-0.6-1.3-1.3-1.3h-4.9c0.5-1.5,1.9-2.6,3.6-2.6h1.3c2.1,0,3.8,1.7,3.8,3.8v2.6C239.4,597,237.7,598.7,235.6,598.7z
					 M224.1,593.6c0-0.7,0.6-1.3,1.3-1.3h7.7c0.7,0,1.3,0.6,1.3,1.3s-0.6,1.3-1.3,1.3h-7.7C224.7,594.9,224.1,594.3,224.1,593.6z
					 M221.6,592.3v2.6c0,0.7,0.6,1.3,1.3,1.3h4.9c-0.5,1.5-1.9,2.6-3.6,2.6h-1.3c-2.1,0-3.8-1.7-3.8-3.8v-2.6c0-2.1,1.7-3.8,3.8-3.8
					h1.3c1.7,0,3.1,1.1,3.6,2.6h-4.9C222.1,591.1,221.6,591.6,221.6,592.3z"/>
			</a>
		</g>
		<g id="minder_node48">
			<g id="node_expander46" class="st10">
				<path id="kity_path_559" class="st11" d="M258,629.5c0,3.3-2.7,6-6,6s-6-2.7-6-6s2.7-6,6-6S258,626.2,258,629.5"/>
				<path id="kity_path_560" class="st8" d="M8.5,0"/>
			</g>
			<path id="node_outline47" class="st7" d="M183,615.5h58c2.8,0,5,2.2,5,5v18c0,2.8-2.2,5-5,5h-58c-2.8,0-5-2.2-5-5v-18
				C178,617.7,180.2,615.5,183,615.5z"/>
			<g id="node_text47">
				<text id="kity_text_223" text-rendering="inherit" transform="matrix(1 0 0 1 183 631.3)" class="st2"><tspan x="0" y="0" class="st4 st12">/e/</tspan><tspan x="13.3" y="0" class="st6 st12">新</tspan></text>
			</g>
			<a id="kity_a_351" xlink:href="http://47.101.61.63:5244/e/%E6%96%B0" >
				<path id="kity_path_353" d="M221,618.5h16c2.2,0,4,1.8,4,4v14c0,2.2-1.8,4-4,4h-16c-2.2,0-4-1.8-4-4v-14
					C217,620.3,218.8,618.5,221,618.5z"/>
				<path id="kity_path_352" class="st13" d="M235.6,634.7h-1.3c-1.7,0-3.1-1.1-3.6-2.6h4.9c0.7,0,1.3-0.6,1.3-1.3v-2.6
					c0-0.7-0.6-1.3-1.3-1.3h-4.9c0.5-1.5,1.9-2.6,3.6-2.6h1.3c2.1,0,3.8,1.7,3.8,3.8v2.6C239.4,633,237.7,634.7,235.6,634.7z
					 M224.1,629.6c0-0.7,0.6-1.3,1.3-1.3h7.7c0.7,0,1.3,0.6,1.3,1.3s-0.6,1.3-1.3,1.3h-7.7C224.7,630.9,224.1,630.3,224.1,629.6z
					 M221.6,628.3v2.6c0,0.7,0.6,1.3,1.3,1.3h4.9c-0.5,1.5-1.9,2.6-3.6,2.6h-1.3c-2.1,0-3.8-1.7-3.8-3.8v-2.6c0-2.1,1.7-3.8,3.8-3.8
					h1.3c1.7,0,3.1,1.1,3.6,2.6h-4.9C222.1,627.1,221.6,627.6,221.6,628.3z"/>
			</a>
		</g>
		<g id="minder_node49">
			<g id="node_expander47" class="st10">
				<path id="kity_path_562" class="st11" d="M258,665.5c0,3.3-2.7,6-6,6s-6-2.7-6-6s2.7-6,6-6S258,662.2,258,665.5"/>
				<path id="kity_path_563" class="st8" d="M8.5,0"/>
			</g>
			<path id="node_outline48" class="st7" d="M164,651.5h77c2.8,0,5,2.2,5,5v18c0,2.8-2.2,5-5,5h-77c-2.8,0-5-2.2-5-5v-18
				C159,653.7,161.2,651.5,164,651.5z"/>
			<g id="node_text48">
				<text id="kity_text_225" text-rendering="inherit" transform="matrix(1 0 0 1 164 667.3)" class="st2 st6 st12">搜索新的</text>
			</g>
			
				<a id="kity_a_354" xlink:href="http://47.101.61.63:1234/?search=%E5%A5%87%E5%A6%99%E5%B0%8F%E9%9F%B3%E7%AC%A6%E5%BD%A9%E5%9B%BE%E7%89%88+%7C+%E5%9C%A3%E7%BB%8F%E9%A6%96%E8%A6%81%E5%8E%9F%E5%88%99+%7C+%E8%81%96%E7%B6%93%E7%84%A1%E8%AA%A4%E8%AB%96+%7C+%E9%9D%92%E6%98%A5%E7%9A%84%E5%A5%91%E6%9C%BA+ppt+%7C&amp;sort=date_modified&amp;ascending=0" >
				<path id="kity_path_356" d="M221,654.5h16c2.2,0,4,1.8,4,4v14c0,2.2-1.8,4-4,4h-16c-2.2,0-4-1.8-4-4v-14
					C217,656.3,218.8,654.5,221,654.5z"/>
				<path id="kity_path_355" class="st13" d="M235.6,670.7h-1.3c-1.7,0-3.1-1.1-3.6-2.6h4.9c0.7,0,1.3-0.6,1.3-1.3v-2.6
					c0-0.7-0.6-1.3-1.3-1.3h-4.9c0.5-1.5,1.9-2.6,3.6-2.6h1.3c2.1,0,3.8,1.7,3.8,3.8v2.6C239.4,669,237.7,670.7,235.6,670.7z
					 M224.1,665.6c0-0.7,0.6-1.3,1.3-1.3h7.7c0.7,0,1.3,0.6,1.3,1.3s-0.6,1.3-1.3,1.3h-7.7C224.7,666.9,224.1,666.3,224.1,665.6z
					 M221.6,664.3v2.6c0,0.7,0.6,1.3,1.3,1.3h4.9c-0.5,1.5-1.9,2.6-3.6,2.6h-1.3c-2.1,0-3.8-1.7-3.8-3.8v-2.6c0-2.1,1.7-3.8,3.8-3.8
					h1.3c1.7,0,3.1,1.1,3.6,2.6h-4.9C222.1,663.1,221.6,663.6,221.6,664.3z"/>
			</a>
		</g>
		<g id="minder_node50">
			<g id="node_expander51">
				<path id="kity_path_574_4_" class="st8" d="M391,746.5"/>
				<path id="kity_path_574_3_" class="st8" d="M379,746.5"/>
				<path id="kity_path_574_1_" class="st8" d="M391,746.5"/>
				<path id="kity_path_575" class="st9" d="M380.5,746.5h9"/>
			</g>
			<path id="node_outline52_4_" class="st15" d="M226,733.5"/>
			<g id="node_text52">
				<text id="kity_text_233" text-rendering="inherit" transform="matrix(1 0 0 1 243 748.6)" class="st2 st6 st14">主内网址收藏记录</text>
			</g>
		</g>
		<g id="minder_node51">
			<g id="node_expander49" class="st10">
				<path id="kity_path_568" class="st11" d="M219,728.5c0,3.3-2.7,6-6,6s-6-2.7-6-6s2.7-6,6-6S219,725.2,219,728.5"/>
				<path id="kity_path_569" class="st8" d="M8.5,0"/>
			</g>
			<path id="node_outline50" class="st7" d="M106,714.5h96c2.8,0,5,2.2,5,5v18c0,2.8-2.2,5-5,5h-96c-2.8,0-5-2.2-5-5v-18
				C101,716.7,103.2,714.5,106,714.5z"/>
			<g id="node_text50">
				<text id="kity_text_229" text-rendering="inherit" transform="matrix(1 0 0 1 106 730.3)" class="st2 st4 st12">adjesus.top</text>
			</g>
			<a id="kity_a_357" xlink:href="http://adjesus.top/" >
				<path id="kity_path_359" d="M182,717.5h16c2.2,0,4,1.8,4,4v14c0,2.2-1.8,4-4,4h-16c-2.2,0-4-1.8-4-4v-14
					C178,719.3,179.8,717.5,182,717.5z"/>
				<path id="kity_path_358" class="st13" d="M196.6,733.7h-1.3c-1.7,0-3.1-1.1-3.6-2.6h4.9c0.7,0,1.3-0.6,1.3-1.3v-2.6
					c0-0.7-0.6-1.3-1.3-1.3h-4.9c0.5-1.5,1.9-2.6,3.6-2.6h1.3c2.1,0,3.8,1.7,3.8,3.8v2.6C200.4,732,198.7,733.7,196.6,733.7z
					 M185.1,728.6c0-0.7,0.6-1.3,1.3-1.3h7.7c0.7,0,1.3,0.6,1.3,1.3s-0.6,1.3-1.3,1.3h-7.7C185.7,729.9,185.1,729.3,185.1,728.6z
					 M182.6,727.3v2.6c0,0.7,0.6,1.3,1.3,1.3h4.9c-0.5,1.5-1.9,2.6-3.6,2.6h-1.3c-2.1,0-3.8-1.7-3.8-3.8v-2.6c0-2.1,1.7-3.8,3.8-3.8
					h1.3c1.7,0,3.1,1.1,3.6,2.6h-4.9C183.1,726.1,182.6,726.6,182.6,727.3z"/>
			</a>
		</g>
		<g id="minder_node52">
			<g id="node_expander50" class="st10">
				<path id="kity_path_571" class="st11" d="M219,764.5c0,3.3-2.7,6-6,6s-6-2.7-6-6s2.7-6,6-6S219,761.2,219,764.5"/>
				<path id="kity_path_572" class="st8" d="M8.5,0"/>
			</g>
			<path id="node_outline51" class="st7" d="M106,750.5h96c2.8,0,5,2.2,5,5v18c0,2.8-2.2,5-5,5h-96c-2.8,0-5-2.2-5-5v-18
				C101,752.7,103.2,750.5,106,750.5z"/>
			<g id="node_text51">
				<text id="kity_text_231" text-rendering="inherit" transform="matrix(1 0 0 1 106 766.3)" class="st2 st4 st12">bcjesus.top</text>
			</g>
			<a id="kity_a_360" xlink:href="http://bcjesus.top/" >
				<path id="kity_path_362" d="M182,753.5h16c2.2,0,4,1.8,4,4v14c0,2.2-1.8,4-4,4h-16c-2.2,0-4-1.8-4-4v-14
					C178,755.3,179.8,753.5,182,753.5z"/>
				<path id="kity_path_361" class="st13" d="M196.6,769.7h-1.3c-1.7,0-3.1-1.1-3.6-2.6h4.9c0.7,0,1.3-0.6,1.3-1.3v-2.6
					c0-0.7-0.6-1.3-1.3-1.3h-4.9c0.5-1.5,1.9-2.6,3.6-2.6h1.3c2.1,0,3.8,1.7,3.8,3.8v2.6C200.4,768,198.7,769.7,196.6,769.7z
					 M185.1,764.6c0-0.7,0.6-1.3,1.3-1.3h7.7c0.7,0,1.3,0.6,1.3,1.3s-0.6,1.3-1.3,1.3h-7.7C185.7,765.9,185.1,765.3,185.1,764.6z
					 M182.6,763.3v2.6c0,0.7,0.6,1.3,1.3,1.3h4.9c-0.5,1.5-1.9,2.6-3.6,2.6h-1.3c-2.1,0-3.8-1.7-3.8-3.8v-2.6c0-2.1,1.7-3.8,3.8-3.8
					h1.3c1.7,0,3.1,1.1,3.6,2.6h-4.9C183.1,762.1,182.6,762.6,182.6,763.3z"/>
			</a>
		</g>
	</g>
</g>
<image style="overflow:visible;" width="70" height="70" xlink:href="搜索.png"  transform="matrix(1.2571 0 0 1.1357 250 902.9205)">
</image>
<image style="overflow:visible;" width="70" height="70" xlink:href="音视频播放器.png"  transform="matrix(1.6214 0 0 1.388 316 346.4117)">
</image>
<image style="overflow:visible;" width="70" height="70" xlink:href="郁金香.png"  transform="matrix(1.9286 0 0 1.6141 381.5 75.6949)">
</image>
<image style="overflow:visible;" width="70" height="70" xlink:href="电影视频.png"  transform="matrix(1.6714 0 0 1.4893 585 897.5)">
</image>
<image style="overflow:visible;" width="70" height="70" xlink:href="音乐.png"  transform="matrix(1.2367 0 0 1.0357 931.0881 877.4741)">
</image>
<image style="overflow:visible;" width="100" height="100" xlink:href="主日学.png"  transform="matrix(1.3206 1.729506e-02 -1.677891e-02 1.2812 911.8098 696.5758)">
</image>
<image style="overflow:visible;" width="88" height="98" xlink:href="盾牌和剑.png"  transform="matrix(1.1217 0 0 1.0613 864 166.6502)">
</image>
<image style="overflow:visible;" width="77" height="77" xlink:href="书本.png"  transform="matrix(1.4098 0 0 1.1623 852.948 15.75)">
</image>
<image style="overflow:visible;" width="80" height="80" xlink:href="图书馆.png"  transform="matrix(1.3062 0 0 1.2675 876 316)">
</image>
</svg>
